<mxfile host="app.diagrams.net" agent="Mozilla/5.0 (Windows NT 10.0; Win64; x64) AppleWebKit/537.36 (KHTML, like Gecko) Chrome/139.0.0.0 Safari/537.36" version="28.1.2">
  <diagram id="C5RBs43oDa-KdzZeNtuy" name="Page-1">
    <mxGraphModel dx="1869" dy="1731" grid="1" gridSize="10" guides="1" tooltips="1" connect="1" arrows="1" fold="1" page="1" pageScale="1" pageWidth="827" pageHeight="1169" math="0" shadow="0">
      <root>
        <mxCell id="WIyWlLk6GJQsqaUBKTNV-0" />
        <mxCell id="WIyWlLk6GJQsqaUBKTNV-1" parent="WIyWlLk6GJQsqaUBKTNV-0" />
        <UserObject label="" plantUmlData="{&#xa;  &quot;data&quot;: &quot;@startuml\n\nentity roles {\n    +role_id : SERIAL &lt;&lt;PK&gt;&gt;\n    name : VARCHAR(100)\n    codename : VARCHAR(100)\n}\n\nentity users {\n    +user_id : SERIAL &lt;&lt;PK&gt;&gt;\n    name : VARCHAR(100)\n    email : VARCHAR(100)\n    password_hash : TEXT\n    phone : VARCHAR(20)\n    role_id : INT &lt;&lt;FK&gt;&gt;\n    created_at : TIMESTAMP\n}\n\nentity addresses {\n    +address_id : SERIAL &lt;&lt;PK&gt;&gt;\n    user_id : INT &lt;&lt;FK&gt;&gt;\n    street : VARCHAR(150)\n    city : VARCHAR(100)\n    state : VARCHAR(100)\n    postal_code : VARCHAR(20)\n    country : VARCHAR(100)\n    is_default : BOOLEAN\n}\n\nentity categories {\n    +category_id : SERIAL &lt;&lt;PK&gt;&gt;\n    name : VARCHAR(100)\n    description : TEXT\n}\n\nentity ebooks {\n    +ebook_id : SERIAL &lt;&lt;PK&gt;&gt;\n    category_id : INT &lt;&lt;FK&gt;&gt;\n    name : VARCHAR(150)\n    description : TEXT\n    price : NUMERIC(10,2)\n    stock : INT\n    created_at : TIMESTAMP\n    updated_at : TIMESTAMP\n    creator_id : INT &lt;&lt;FK&gt;&gt;\n}\n\nentity ebooks_images {\n    +image_id : SERIAL &lt;&lt;PK&gt;&gt;\n    ebook_id : INT &lt;&lt;FK&gt;&gt;\n    image_url : TEXT\n}\n\nentity cart_items {\n    +cart_item_id : SERIAL &lt;&lt;PK&gt;&gt;\n    user_id : INT &lt;&lt;FK&gt;&gt;\n    ebook_id : INT &lt;&lt;FK&gt;&gt;\n    quantity : INT\n    added_at : TIMESTAMP\n}\n\nentity orders_status {\n    +orderstatus_id : SERIAL &lt;&lt;PK&gt;&gt;\n    name : VARCHAR(100)\n    codename : VARCHAR(100)\n}\n\nentity orders {\n    +order_id : SERIAL &lt;&lt;PK&gt;&gt;\n    user_id : INT &lt;&lt;FK&gt;&gt;\n    address_id : INT &lt;&lt;FK&gt;&gt;\n    total : NUMERIC(12,2)\n    status : INT &lt;&lt;FK&gt;&gt;\n    created_at : TIMESTAMP\n}\n\nentity order_items {\n    +order_item_id : SERIAL &lt;&lt;PK&gt;&gt;\n    order_id : INT &lt;&lt;FK&gt;&gt;\n    ebook_id : INT &lt;&lt;FK&gt;&gt;\n    quantity : INT\n    price : NUMERIC(10,2)\n}\n\nentity payments_status {\n    +pstatus_id : SERIAL &lt;&lt;PK&gt;&gt;\n    name : VARCHAR(100)\n    codename : VARCHAR(100)\n}\n\nentity payments {\n    +payment_id : SERIAL &lt;&lt;PK&gt;&gt;\n    order_id : INT &lt;&lt;FK&gt;&gt;\n    method : VARCHAR(50)\n    amount : NUMERIC(12,2)\n    pstatus_id : INT &lt;&lt;FK&gt;&gt;\n    paid_at : TIMESTAMP\n}\n\nentity invoices {\n    +invoice_id : SERIAL &lt;&lt;PK&gt;&gt;\n    order_id : INT &lt;&lt;FK&gt;&gt;\n    user_id : INT &lt;&lt;FK&gt;&gt;\n    issued_at : TIMESTAMP\n    total : NUMERIC(10,2)\n    pdf_url : TEXT\n}\n\nentity seller_request_status {\n    +sr_status_id : SERIAL &lt;&lt;PK&gt;&gt;\n    name : VARCHAR(100)\n    codename : VARCHAR(100)\n}\n\nentity seller_requests {\n    +request_id : SERIAL &lt;&lt;PK&gt;&gt;\n    user_id : INT &lt;&lt;FK&gt;&gt;\n    business_name : VARCHAR(150)\n    document_id : VARCHAR(50)\n    sr_status_id : INT &lt;&lt;FK&gt;&gt;\n    created_at : TIMESTAMP\n}\n\n\n&#39; =====================\n&#39; Relaciones\n&#39; =====================\n\nusers }o--|| roles : \&quot;role_id\&quot;\naddresses }o--|| users : \&quot;user_id\&quot;\nebooks }o--|| categories : \&quot;category_id\&quot;\nebooks }o--|| users : \&quot;creator_id\&quot;\nebooks_images }o--|| ebooks : \&quot;ebook_id\&quot;\ncart_items }o--|| users : \&quot;user_id\&quot;\ncart_items }o--|| ebooks : \&quot;ebook_id\&quot;\norders }o--|| users : \&quot;user_id\&quot;\norders }o--|| addresses : \&quot;address_id\&quot;\norders }o--|| orders_status : \&quot;status\&quot;\norder_items }o--|| orders : \&quot;order_id\&quot;\norder_items }o--|| ebooks : \&quot;ebook_id\&quot;\npayments }o--|| orders : \&quot;order_id\&quot;\npayments }o--|| payments_status : \&quot;pstatus_id\&quot;\ninvoices }o--|| orders : \&quot;order_id\&quot;\ninvoices }o--|| users : \&quot;user_id\&quot;\nseller_requests }o--|| users : \&quot;user_id\&quot;\nseller_requests }o--|| seller_request_status : \&quot;sr_status_id\&quot;\n\n@enduml\n&quot;,&#xa;  &quot;format&quot;: &quot;svg&quot;&#xa;}" id="TIlbHs7T6B_dPQYPTWWr-1">
          <mxCell style="shape=image;noLabel=1;verticalAlign=top;aspect=fixed;imageAspect=0;image=data:image/svg+xml,PHN2ZyB4bWxucz0iaHR0cDovL3d3dy53My5vcmcvMjAwMC9zdmciIHhtbG5zOnhsaW5rPSJodHRwOi8vd3d3LnczLm9yZy8xOTk5L3hsaW5rIiBjb250ZW50U3R5bGVUeXBlPSJ0ZXh0L2NzcyIgZGF0YS1kaWFncmFtLXR5cGU9IkNMQVNTIiBoZWlnaHQ9IjEwMThweCIgcHJlc2VydmVBc3BlY3RSYXRpbz0ibm9uZSIgc3R5bGU9IndpZHRoOjE0NjJweDtoZWlnaHQ6MTAxOHB4O2JhY2tncm91bmQ6I0ZGRkZGRjsiIHZlcnNpb249IjEuMSIgdmlld0JveD0iMCAwIDE0NjIgMTAxOCIgd2lkdGg9IjE0NjJweCIgem9vbUFuZFBhbj0ibWFnbmlmeSI+PGRlZnMvPjxnPjwhLS1jbGFzcyByb2xlcy0tPjxnIGNsYXNzPSJlbnRpdHkiIGRhdGEtZW50aXR5PSJyb2xlcyIgZGF0YS1zb3VyY2UtbGluZT0iMSIgZGF0YS11aWQ9ImVudDAwMDIiIGlkPSJlbnRpdHlfcm9sZXMiPjxyZWN0IGZpbGw9IiNGMUYxRjEiIGhlaWdodD0iOTIuOTUzMSIgcng9IjIuNSIgcnk9IjIuNSIgc3R5bGU9InN0cm9rZTojMTgxODE4O3N0cm9rZS13aWR0aDowLjU7IiB3aWR0aD0iMTczIiB4PSI2MjAuNSIgeT0iOTE5Ii8+PGVsbGlwc2UgY3g9IjY4NS4yNSIgY3k9IjkzNSIgZmlsbD0iI0FERDFCMiIgcng9IjExIiByeT0iMTEiIHN0eWxlPSJzdHJva2U6IzE4MTgxODtzdHJva2Utd2lkdGg6MTsiLz48cGF0aCBkPSJNNjg4Ljg3NSw5NDEgTDY4OC44NzUsOTM5LjI1IEw2ODMuNTYyNSw5MzkuMjUgUTY4My41NjI1LDkzOS4yNSA2ODMuNTYyNSw5MzUuNjg3NSBMNjg3LjgxMjUsOTM1LjY4NzUgTDY4Ny44MTI1LDkzMy45Mzc1IEw2ODMuNTYyNSw5MzMuOTM3NSBMNjgzLjU2MjUsOTMxLjQzNzUgTDY4OC44NzUsOTMxLjQzNzUgTDY4OC44NzUsOTI5LjY4NzUgTDY4MS44MTI1LDkyOS42ODc1IFE2ODEuODEyNSw5MjkuNjg3NSA2ODEuODEyNSw5NDEgTDY4OC44NzUsOTQxIFogIiBmaWxsPSIjMDAwMDAwIi8+PHRleHQgZmlsbD0iIzAwMDAwMCIgZm9udC1mYW1pbHk9InNhbnMtc2VyaWYiIGZvbnQtc2l6ZT0iMTQiIGxlbmd0aEFkanVzdD0ic3BhY2luZyIgdGV4dExlbmd0aD0iMzUiIHg9IjcwNS43NSIgeT0iOTQwLjc0MjIiPnJvbGVzPC90ZXh0PjxsaW5lIHN0eWxlPSJzdHJva2U6IzE4MTgxODtzdHJva2Utd2lkdGg6MC41OyIgeDE9IjYyMS41IiB4Mj0iNzkyLjUiIHkxPSI5NTEiIHkyPSI5NTEiLz48ZWxsaXBzZSBjeD0iNjMxLjUiIGN5PSI5NjMuOTkyMiIgZmlsbD0ibm9uZSIgcng9IjMiIHJ5PSIzIiBzdHlsZT0ic3Ryb2tlOiMwMzgwNDg7c3Ryb2tlLXdpZHRoOjE7Ii8+PHRleHQgZmlsbD0iIzAwMDAwMCIgZm9udC1mYW1pbHk9InNhbnMtc2VyaWYiIGZvbnQtc2l6ZT0iMTQiIGxlbmd0aEFkanVzdD0ic3BhY2luZyIgdGV4dExlbmd0aD0iMTQ3IiB4PSI2NDAuNSIgeT0iOTY4LjIzNDQiPnJvbGVfaWQgOiBTRVJJQUwgJiMxNzE7UEsmIzE4Nzs8L3RleHQ+PGxpbmUgc3R5bGU9InN0cm9rZTojMTgxODE4O3N0cm9rZS13aWR0aDowLjU7IiB4MT0iNjIxLjUiIHgyPSI3OTIuNSIgeTE9Ijk3My45ODQ0IiB5Mj0iOTczLjk4NDQiLz48dGV4dCBmaWxsPSIjMDAwMDAwIiBmb250LWZhbWlseT0ic2Fucy1zZXJpZiIgZm9udC1zaXplPSIxNCIgbGVuZ3RoQWRqdXN0PSJzcGFjaW5nIiB0ZXh0TGVuZ3RoPSIxMzMiIHg9IjYyNi41IiB5PSI5OTEuMjE4OCI+bmFtZSA6IFZBUkNIQVIoMTAwKTwvdGV4dD48dGV4dCBmaWxsPSIjMDAwMDAwIiBmb250LWZhbWlseT0ic2Fucy1zZXJpZiIgZm9udC1zaXplPSIxNCIgbGVuZ3RoQWRqdXN0PSJzcGFjaW5nIiB0ZXh0TGVuZ3RoPSIxNjEiIHg9IjYyNi41IiB5PSIxMDA2LjIwMzEiPmNvZGVuYW1lIDogVkFSQ0hBUigxMDApPC90ZXh0PjwvZz48IS0tY2xhc3MgdXNlcnMtLT48ZyBjbGFzcz0iZW50aXR5IiBkYXRhLWVudGl0eT0idXNlcnMiIGRhdGEtc291cmNlLWxpbmU9IjciIGRhdGEtdWlkPSJlbnQwMDAzIiBpZD0iZW50aXR5X3VzZXJzIj48cmVjdCBmaWxsPSIjRjFGMUYxIiBoZWlnaHQ9IjE1Mi44OTA2IiByeD0iMi41IiByeT0iMi41IiBzdHlsZT0ic3Ryb2tlOiMxODE4MTg7c3Ryb2tlLXdpZHRoOjAuNTsiIHdpZHRoPSIxODAiIHg9IjYxNyIgeT0iNjkxIi8+PGVsbGlwc2UgY3g9IjY4NS4yNSIgY3k9IjcwNyIgZmlsbD0iI0FERDFCMiIgcng9IjExIiByeT0iMTEiIHN0eWxlPSJzdHJva2U6IzE4MTgxODtzdHJva2Utd2lkdGg6MTsiLz48cGF0aCBkPSJNNjg4Ljg3NSw3MTMgTDY4OC44NzUsNzExLjI1IEw2ODMuNTYyNSw3MTEuMjUgUTY4My41NjI1LDcxMS4yNSA2ODMuNTYyNSw3MDcuNjg3NSBMNjg3LjgxMjUsNzA3LjY4NzUgTDY4Ny44MTI1LDcwNS45Mzc1IEw2ODMuNTYyNSw3MDUuOTM3NSBMNjgzLjU2MjUsNzAzLjQzNzUgTDY4OC44NzUsNzAzLjQzNzUgTDY4OC44NzUsNzAxLjY4NzUgTDY4MS44MTI1LDcwMS42ODc1IFE2ODEuODEyNSw3MDEuNjg3NSA2ODEuODEyNSw3MTMgTDY4OC44NzUsNzEzIFogIiBmaWxsPSIjMDAwMDAwIi8+PHRleHQgZmlsbD0iIzAwMDAwMCIgZm9udC1mYW1pbHk9InNhbnMtc2VyaWYiIGZvbnQtc2l6ZT0iMTQiIGxlbmd0aEFkanVzdD0ic3BhY2luZyIgdGV4dExlbmd0aD0iMzUiIHg9IjcwNS43NSIgeT0iNzEyLjc0MjIiPnVzZXJzPC90ZXh0PjxsaW5lIHN0eWxlPSJzdHJva2U6IzE4MTgxODtzdHJva2Utd2lkdGg6MC41OyIgeDE9IjYxOCIgeDI9Ijc5NiIgeTE9IjcyMyIgeTI9IjcyMyIvPjxlbGxpcHNlIGN4PSI2MjgiIGN5PSI3MzUuOTkyMiIgZmlsbD0ibm9uZSIgcng9IjMiIHJ5PSIzIiBzdHlsZT0ic3Ryb2tlOiMwMzgwNDg7c3Ryb2tlLXdpZHRoOjE7Ii8+PHRleHQgZmlsbD0iIzAwMDAwMCIgZm9udC1mYW1pbHk9InNhbnMtc2VyaWYiIGZvbnQtc2l6ZT0iMTQiIGxlbmd0aEFkanVzdD0ic3BhY2luZyIgdGV4dExlbmd0aD0iMTQ3IiB4PSI2MzciIHk9Ijc0MC4yMzQ0Ij51c2VyX2lkIDogU0VSSUFMICYjMTcxO1BLJiMxODc7PC90ZXh0Pjx0ZXh0IGZpbGw9IiMwMDAwMDAiIGZvbnQtZmFtaWx5PSJzYW5zLXNlcmlmIiBmb250LXNpemU9IjE0IiBsZW5ndGhBZGp1c3Q9InNwYWNpbmciIHRleHRMZW5ndGg9IjE0MCIgeD0iNjM3IiB5PSI3NTUuMjE4OCI+cGFzc3dvcmRfaGFzaCA6IFRFWFQ8L3RleHQ+PHRleHQgZmlsbD0iIzAwMDAwMCIgZm9udC1mYW1pbHk9InNhbnMtc2VyaWYiIGZvbnQtc2l6ZT0iMTQiIGxlbmd0aEFkanVzdD0ic3BhY2luZyIgdGV4dExlbmd0aD0iMTI2IiB4PSI2MzciIHk9Ijc3MC4yMDMxIj5yb2xlX2lkIDogSU5UICYjMTcxO0ZLJiMxODc7PC90ZXh0Pjx0ZXh0IGZpbGw9IiMwMDAwMDAiIGZvbnQtZmFtaWx5PSJzYW5zLXNlcmlmIiBmb250LXNpemU9IjE0IiBsZW5ndGhBZGp1c3Q9InNwYWNpbmciIHRleHRMZW5ndGg9IjE1NCIgeD0iNjM3IiB5PSI3ODUuMTg3NSI+Y3JlYXRlZF9hdCA6IFRJTUVTVEFNUDwvdGV4dD48bGluZSBzdHlsZT0ic3Ryb2tlOiMxODE4MTg7c3Ryb2tlLXdpZHRoOjAuNTsiIHgxPSI2MTgiIHgyPSI3OTYiIHkxPSI3OTAuOTM3NSIgeTI9Ijc5MC45Mzc1Ii8+PHRleHQgZmlsbD0iIzAwMDAwMCIgZm9udC1mYW1pbHk9InNhbnMtc2VyaWYiIGZvbnQtc2l6ZT0iMTQiIGxlbmd0aEFkanVzdD0ic3BhY2luZyIgdGV4dExlbmd0aD0iMTMzIiB4PSI2MjMiIHk9IjgwOC4xNzE5Ij5uYW1lIDogVkFSQ0hBUigxMDApPC90ZXh0Pjx0ZXh0IGZpbGw9IiMwMDAwMDAiIGZvbnQtZmFtaWx5PSJzYW5zLXNlcmlmIiBmb250LXNpemU9IjE0IiBsZW5ndGhBZGp1c3Q9InNwYWNpbmciIHRleHRMZW5ndGg9IjE0MCIgeD0iNjIzIiB5PSI4MjMuMTU2MyI+ZW1haWwgOiBWQVJDSEFSKDEwMCk8L3RleHQ+PHRleHQgZmlsbD0iIzAwMDAwMCIgZm9udC1mYW1pbHk9InNhbnMtc2VyaWYiIGZvbnQtc2l6ZT0iMTQiIGxlbmd0aEFkanVzdD0ic3BhY2luZyIgdGV4dExlbmd0aD0iMTMzIiB4PSI2MjMiIHk9IjgzOC4xNDA2Ij5waG9uZSA6IFZBUkNIQVIoMjApPC90ZXh0PjwvZz48IS0tY2xhc3MgYWRkcmVzc2VzLS0+PGcgY2xhc3M9ImVudGl0eSIgZGF0YS1lbnRpdHk9ImFkZHJlc3NlcyIgZGF0YS1zb3VyY2UtbGluZT0iMTciIGRhdGEtdWlkPSJlbnQwMDA0IiBpZD0iZW50aXR5X2FkZHJlc3NlcyI+PHJlY3QgZmlsbD0iI0YxRjFGMSIgaGVpZ2h0PSIxNjcuODc1IiByeD0iMi41IiByeT0iMi41IiBzdHlsZT0ic3Ryb2tlOiMxODE4MTg7c3Ryb2tlLXdpZHRoOjAuNTsiIHdpZHRoPSIxOTQiIHg9IjkwMSIgeT0iNDQwLjUiLz48ZWxsaXBzZSBjeD0iOTYyLjI1IiBjeT0iNDU2LjUiIGZpbGw9IiNBREQxQjIiIHJ4PSIxMSIgcnk9IjExIiBzdHlsZT0ic3Ryb2tlOiMxODE4MTg7c3Ryb2tlLXdpZHRoOjE7Ii8+PHBhdGggZD0iTTk2NS44NzUsNDYyLjUgTDk2NS44NzUsNDYwLjc1IEw5NjAuNTYyNSw0NjAuNzUgUTk2MC41NjI1LDQ2MC43NSA5NjAuNTYyNSw0NTcuMTg3NSBMOTY0LjgxMjUsNDU3LjE4NzUgTDk2NC44MTI1LDQ1NS40Mzc1IEw5NjAuNTYyNSw0NTUuNDM3NSBMOTYwLjU2MjUsNDUyLjkzNzUgTDk2NS44NzUsNDUyLjkzNzUgTDk2NS44NzUsNDUxLjE4NzUgTDk1OC44MTI1LDQ1MS4xODc1IFE5NTguODEyNSw0NTEuMTg3NSA5NTguODEyNSw0NjIuNSBMOTY1Ljg3NSw0NjIuNSBaICIgZmlsbD0iIzAwMDAwMCIvPjx0ZXh0IGZpbGw9IiMwMDAwMDAiIGZvbnQtZmFtaWx5PSJzYW5zLXNlcmlmIiBmb250LXNpemU9IjE0IiBsZW5ndGhBZGp1c3Q9InNwYWNpbmciIHRleHRMZW5ndGg9IjYzIiB4PSI5ODIuNzUiIHk9IjQ2Mi4yNDIyIj5hZGRyZXNzZXM8L3RleHQ+PGxpbmUgc3R5bGU9InN0cm9rZTojMTgxODE4O3N0cm9rZS13aWR0aDowLjU7IiB4MT0iOTAyIiB4Mj0iMTA5NCIgeTE9IjQ3Mi41IiB5Mj0iNDcyLjUiLz48ZWxsaXBzZSBjeD0iOTEyIiBjeT0iNDg1LjQ5MjIiIGZpbGw9Im5vbmUiIHJ4PSIzIiByeT0iMyIgc3R5bGU9InN0cm9rZTojMDM4MDQ4O3N0cm9rZS13aWR0aDoxOyIvPjx0ZXh0IGZpbGw9IiMwMDAwMDAiIGZvbnQtZmFtaWx5PSJzYW5zLXNlcmlmIiBmb250LXNpemU9IjE0IiBsZW5ndGhBZGp1c3Q9InNwYWNpbmciIHRleHRMZW5ndGg9IjE2OCIgeD0iOTIxIiB5PSI0ODkuNzM0NCI+YWRkcmVzc19pZCA6IFNFUklBTCAmIzE3MTtQSyYjMTg3OzwvdGV4dD48dGV4dCBmaWxsPSIjMDAwMDAwIiBmb250LWZhbWlseT0ic2Fucy1zZXJpZiIgZm9udC1zaXplPSIxNCIgbGVuZ3RoQWRqdXN0PSJzcGFjaW5nIiB0ZXh0TGVuZ3RoPSIxMjYiIHg9IjkyMSIgeT0iNTA0LjcxODgiPnVzZXJfaWQgOiBJTlQgJiMxNzE7RksmIzE4Nzs8L3RleHQ+PHRleHQgZmlsbD0iIzAwMDAwMCIgZm9udC1mYW1pbHk9InNhbnMtc2VyaWYiIGZvbnQtc2l6ZT0iMTQiIGxlbmd0aEFkanVzdD0ic3BhY2luZyIgdGV4dExlbmd0aD0iMTQwIiB4PSI5MjEiIHk9IjUxOS43MDMxIj5pc19kZWZhdWx0IDogQk9PTEVBTjwvdGV4dD48bGluZSBzdHlsZT0ic3Ryb2tlOiMxODE4MTg7c3Ryb2tlLXdpZHRoOjAuNTsiIHgxPSI5MDIiIHgyPSIxMDk0IiB5MT0iNTI1LjQ1MzEiIHkyPSI1MjUuNDUzMSIvPjx0ZXh0IGZpbGw9IiMwMDAwMDAiIGZvbnQtZmFtaWx5PSJzYW5zLXNlcmlmIiBmb250LXNpemU9IjE0IiBsZW5ndGhBZGp1c3Q9InNwYWNpbmciIHRleHRMZW5ndGg9IjE0NyIgeD0iOTA3IiB5PSI1NDIuNjg3NSI+c3RyZWV0IDogVkFSQ0hBUigxNTApPC90ZXh0Pjx0ZXh0IGZpbGw9IiMwMDAwMDAiIGZvbnQtZmFtaWx5PSJzYW5zLXNlcmlmIiBmb250LXNpemU9IjE0IiBsZW5ndGhBZGp1c3Q9InNwYWNpbmciIHRleHRMZW5ndGg9IjEzMyIgeD0iOTA3IiB5PSI1NTcuNjcxOSI+Y2l0eSA6IFZBUkNIQVIoMTAwKTwvdGV4dD48dGV4dCBmaWxsPSIjMDAwMDAwIiBmb250LWZhbWlseT0ic2Fucy1zZXJpZiIgZm9udC1zaXplPSIxNCIgbGVuZ3RoQWRqdXN0PSJzcGFjaW5nIiB0ZXh0TGVuZ3RoPSIxNDAiIHg9IjkwNyIgeT0iNTcyLjY1NjMiPnN0YXRlIDogVkFSQ0hBUigxMDApPC90ZXh0Pjx0ZXh0IGZpbGw9IiMwMDAwMDAiIGZvbnQtZmFtaWx5PSJzYW5zLXNlcmlmIiBmb250LXNpemU9IjE0IiBsZW5ndGhBZGp1c3Q9InNwYWNpbmciIHRleHRMZW5ndGg9IjE3NSIgeD0iOTA3IiB5PSI1ODcuNjQwNiI+cG9zdGFsX2NvZGUgOiBWQVJDSEFSKDIwKTwvdGV4dD48dGV4dCBmaWxsPSIjMDAwMDAwIiBmb250LWZhbWlseT0ic2Fucy1zZXJpZiIgZm9udC1zaXplPSIxNCIgbGVuZ3RoQWRqdXN0PSJzcGFjaW5nIiB0ZXh0TGVuZ3RoPSIxNTQiIHg9IjkwNyIgeT0iNjAyLjYyNSI+Y291bnRyeSA6IFZBUkNIQVIoMTAwKTwvdGV4dD48L2c+PCEtLWNsYXNzIGNhdGVnb3JpZXMtLT48ZyBjbGFzcz0iZW50aXR5IiBkYXRhLWVudGl0eT0iY2F0ZWdvcmllcyIgZGF0YS1zb3VyY2UtbGluZT0iMjgiIGRhdGEtdWlkPSJlbnQwMDA1IiBpZD0iZW50aXR5X2NhdGVnb3JpZXMiPjxyZWN0IGZpbGw9IiNGMUYxRjEiIGhlaWdodD0iOTIuOTUzMSIgcng9IjIuNSIgcnk9IjIuNSIgc3R5bGU9InN0cm9rZTojMTgxODE4O3N0cm9rZS13aWR0aDowLjU7IiB3aWR0aD0iMjAxIiB4PSIxNjUuNSIgeT0iNzIxIi8+PGVsbGlwc2UgY3g9IjIyNi43NSIgY3k9IjczNyIgZmlsbD0iI0FERDFCMiIgcng9IjExIiByeT0iMTEiIHN0eWxlPSJzdHJva2U6IzE4MTgxODtzdHJva2Utd2lkdGg6MTsiLz48cGF0aCBkPSJNMjMwLjM3NSw3NDMgTDIzMC4zNzUsNzQxLjI1IEwyMjUuMDYyNSw3NDEuMjUgUTIyNS4wNjI1LDc0MS4yNSAyMjUuMDYyNSw3MzcuNjg3NSBMMjI5LjMxMjUsNzM3LjY4NzUgTDIyOS4zMTI1LDczNS45Mzc1IEwyMjUuMDYyNSw3MzUuOTM3NSBMMjI1LjA2MjUsNzMzLjQzNzUgTDIzMC4zNzUsNzMzLjQzNzUgTDIzMC4zNzUsNzMxLjY4NzUgTDIyMy4zMTI1LDczMS42ODc1IFEyMjMuMzEyNSw3MzEuNjg3NSAyMjMuMzEyNSw3NDMgTDIzMC4zNzUsNzQzIFogIiBmaWxsPSIjMDAwMDAwIi8+PHRleHQgZmlsbD0iIzAwMDAwMCIgZm9udC1mYW1pbHk9InNhbnMtc2VyaWYiIGZvbnQtc2l6ZT0iMTQiIGxlbmd0aEFkanVzdD0ic3BhY2luZyIgdGV4dExlbmd0aD0iNzAiIHg9IjI0Ny4yNSIgeT0iNzQyLjc0MjIiPmNhdGVnb3JpZXM8L3RleHQ+PGxpbmUgc3R5bGU9InN0cm9rZTojMTgxODE4O3N0cm9rZS13aWR0aDowLjU7IiB4MT0iMTY2LjUiIHgyPSIzNjUuNSIgeTE9Ijc1MyIgeTI9Ijc1MyIvPjxlbGxpcHNlIGN4PSIxNzYuNSIgY3k9Ijc2NS45OTIyIiBmaWxsPSJub25lIiByeD0iMyIgcnk9IjMiIHN0eWxlPSJzdHJva2U6IzAzODA0ODtzdHJva2Utd2lkdGg6MTsiLz48dGV4dCBmaWxsPSIjMDAwMDAwIiBmb250LWZhbWlseT0ic2Fucy1zZXJpZiIgZm9udC1zaXplPSIxNCIgbGVuZ3RoQWRqdXN0PSJzcGFjaW5nIiB0ZXh0TGVuZ3RoPSIxNzUiIHg9IjE4NS41IiB5PSI3NzAuMjM0NCI+Y2F0ZWdvcnlfaWQgOiBTRVJJQUwgJiMxNzE7UEsmIzE4Nzs8L3RleHQ+PHRleHQgZmlsbD0iIzAwMDAwMCIgZm9udC1mYW1pbHk9InNhbnMtc2VyaWYiIGZvbnQtc2l6ZT0iMTQiIGxlbmd0aEFkanVzdD0ic3BhY2luZyIgdGV4dExlbmd0aD0iMTI2IiB4PSIxODUuNSIgeT0iNzg1LjIxODgiPmRlc2NyaXB0aW9uIDogVEVYVDwvdGV4dD48bGluZSBzdHlsZT0ic3Ryb2tlOiMxODE4MTg7c3Ryb2tlLXdpZHRoOjAuNTsiIHgxPSIxNjYuNSIgeDI9IjM2NS41IiB5MT0iNzkwLjk2ODgiIHkyPSI3OTAuOTY4OCIvPjx0ZXh0IGZpbGw9IiMwMDAwMDAiIGZvbnQtZmFtaWx5PSJzYW5zLXNlcmlmIiBmb250LXNpemU9IjE0IiBsZW5ndGhBZGp1c3Q9InNwYWNpbmciIHRleHRMZW5ndGg9IjEzMyIgeD0iMTcxLjUiIHk9IjgwOC4yMDMxIj5uYW1lIDogVkFSQ0hBUigxMDApPC90ZXh0PjwvZz48IS0tY2xhc3MgZWJvb2tzLS0+PGcgY2xhc3M9ImVudGl0eSIgZGF0YS1lbnRpdHk9ImVib29rcyIgZGF0YS1zb3VyY2UtbGluZT0iMzQiIGRhdGEtdWlkPSJlbnQwMDA2IiBpZD0iZW50aXR5X2Vib29rcyI+PHJlY3QgZmlsbD0iI0YxRjFGMSIgaGVpZ2h0PSIxODIuODU5NCIgcng9IjIuNSIgcnk9IjIuNSIgc3R5bGU9InN0cm9rZTojMTgxODE4O3N0cm9rZS13aWR0aDowLjU7IiB3aWR0aD0iMTgwIiB4PSIxNzYiIHk9IjQzMyIvPjxlbGxpcHNlIGN4PSIyNDAuNzUiIGN5PSI0NDkiIGZpbGw9IiNBREQxQjIiIHJ4PSIxMSIgcnk9IjExIiBzdHlsZT0ic3Ryb2tlOiMxODE4MTg7c3Ryb2tlLXdpZHRoOjE7Ii8+PHBhdGggZD0iTTI0NC4zNzUsNDU1IEwyNDQuMzc1LDQ1My4yNSBMMjM5LjA2MjUsNDUzLjI1IFEyMzkuMDYyNSw0NTMuMjUgMjM5LjA2MjUsNDQ5LjY4NzUgTDI0My4zMTI1LDQ0OS42ODc1IEwyNDMuMzEyNSw0NDcuOTM3NSBMMjM5LjA2MjUsNDQ3LjkzNzUgTDIzOS4wNjI1LDQ0NS40Mzc1IEwyNDQuMzc1LDQ0NS40Mzc1IEwyNDQuMzc1LDQ0My42ODc1IEwyMzcuMzEyNSw0NDMuNjg3NSBRMjM3LjMxMjUsNDQzLjY4NzUgMjM3LjMxMjUsNDU1IEwyNDQuMzc1LDQ1NSBaICIgZmlsbD0iIzAwMDAwMCIvPjx0ZXh0IGZpbGw9IiMwMDAwMDAiIGZvbnQtZmFtaWx5PSJzYW5zLXNlcmlmIiBmb250LXNpemU9IjE0IiBsZW5ndGhBZGp1c3Q9InNwYWNpbmciIHRleHRMZW5ndGg9IjQyIiB4PSIyNjEuMjUiIHk9IjQ1NC43NDIyIj5lYm9va3M8L3RleHQ+PGxpbmUgc3R5bGU9InN0cm9rZTojMTgxODE4O3N0cm9rZS13aWR0aDowLjU7IiB4MT0iMTc3IiB4Mj0iMzU1IiB5MT0iNDY1IiB5Mj0iNDY1Ii8+PGVsbGlwc2UgY3g9IjE4NyIgY3k9IjQ3Ny45OTIyIiBmaWxsPSJub25lIiByeD0iMyIgcnk9IjMiIHN0eWxlPSJzdHJva2U6IzAzODA0ODtzdHJva2Utd2lkdGg6MTsiLz48dGV4dCBmaWxsPSIjMDAwMDAwIiBmb250LWZhbWlseT0ic2Fucy1zZXJpZiIgZm9udC1zaXplPSIxNCIgbGVuZ3RoQWRqdXN0PSJzcGFjaW5nIiB0ZXh0TGVuZ3RoPSIxNTQiIHg9IjE5NiIgeT0iNDgyLjIzNDQiPmVib29rX2lkIDogU0VSSUFMICYjMTcxO1BLJiMxODc7PC90ZXh0Pjx0ZXh0IGZpbGw9IiMwMDAwMDAiIGZvbnQtZmFtaWx5PSJzYW5zLXNlcmlmIiBmb250LXNpemU9IjE0IiBsZW5ndGhBZGp1c3Q9InNwYWNpbmciIHRleHRMZW5ndGg9IjE1NCIgeD0iMTk2IiB5PSI0OTcuMjE4OCI+Y2F0ZWdvcnlfaWQgOiBJTlQgJiMxNzE7RksmIzE4Nzs8L3RleHQ+PHRleHQgZmlsbD0iIzAwMDAwMCIgZm9udC1mYW1pbHk9InNhbnMtc2VyaWYiIGZvbnQtc2l6ZT0iMTQiIGxlbmd0aEFkanVzdD0ic3BhY2luZyIgdGV4dExlbmd0aD0iMTI2IiB4PSIxOTYiIHk9IjUxMi4yMDMxIj5kZXNjcmlwdGlvbiA6IFRFWFQ8L3RleHQ+PHRleHQgZmlsbD0iIzAwMDAwMCIgZm9udC1mYW1pbHk9InNhbnMtc2VyaWYiIGZvbnQtc2l6ZT0iMTQiIGxlbmd0aEFkanVzdD0ic3BhY2luZyIgdGV4dExlbmd0aD0iNzciIHg9IjE5NiIgeT0iNTI3LjE4NzUiPnN0b2NrIDogSU5UPC90ZXh0Pjx0ZXh0IGZpbGw9IiMwMDAwMDAiIGZvbnQtZmFtaWx5PSJzYW5zLXNlcmlmIiBmb250LXNpemU9IjE0IiBsZW5ndGhBZGp1c3Q9InNwYWNpbmciIHRleHRMZW5ndGg9IjE1NCIgeD0iMTk2IiB5PSI1NDIuMTcxOSI+Y3JlYXRlZF9hdCA6IFRJTUVTVEFNUDwvdGV4dD48dGV4dCBmaWxsPSIjMDAwMDAwIiBmb250LWZhbWlseT0ic2Fucy1zZXJpZiIgZm9udC1zaXplPSIxNCIgbGVuZ3RoQWRqdXN0PSJzcGFjaW5nIiB0ZXh0TGVuZ3RoPSIxNTQiIHg9IjE5NiIgeT0iNTU3LjE1NjMiPnVwZGF0ZWRfYXQgOiBUSU1FU1RBTVA8L3RleHQ+PHRleHQgZmlsbD0iIzAwMDAwMCIgZm9udC1mYW1pbHk9InNhbnMtc2VyaWYiIGZvbnQtc2l6ZT0iMTQiIGxlbmd0aEFkanVzdD0ic3BhY2luZyIgdGV4dExlbmd0aD0iMTQ3IiB4PSIxOTYiIHk9IjU3Mi4xNDA2Ij5jcmVhdG9yX2lkIDogSU5UICYjMTcxO0ZLJiMxODc7PC90ZXh0PjxsaW5lIHN0eWxlPSJzdHJva2U6IzE4MTgxODtzdHJva2Utd2lkdGg6MC41OyIgeDE9IjE3NyIgeDI9IjM1NSIgeTE9IjU3Ny44OTA2IiB5Mj0iNTc3Ljg5MDYiLz48dGV4dCBmaWxsPSIjMDAwMDAwIiBmb250LWZhbWlseT0ic2Fucy1zZXJpZiIgZm9udC1zaXplPSIxNCIgbGVuZ3RoQWRqdXN0PSJzcGFjaW5nIiB0ZXh0TGVuZ3RoPSIxMzMiIHg9IjE4MiIgeT0iNTk1LjEyNSI+bmFtZSA6IFZBUkNIQVIoMTUwKTwvdGV4dD48dGV4dCBmaWxsPSIjMDAwMDAwIiBmb250LWZhbWlseT0ic2Fucy1zZXJpZiIgZm9udC1zaXplPSIxNCIgbGVuZ3RoQWRqdXN0PSJzcGFjaW5nIiB0ZXh0TGVuZ3RoPSIxNDciIHg9IjE4MiIgeT0iNjEwLjEwOTQiPnByaWNlIDogTlVNRVJJQygxMCwyKTwvdGV4dD48L2c+PCEtLWNsYXNzIGVib29rc19pbWFnZXMtLT48ZyBjbGFzcz0iZW50aXR5IiBkYXRhLWVudGl0eT0iZWJvb2tzX2ltYWdlcyIgZGF0YS1zb3VyY2UtbGluZT0iNDYiIGRhdGEtdWlkPSJlbnQwMDA3IiBpZD0iZW50aXR5X2Vib29rc19pbWFnZXMiPjxyZWN0IGZpbGw9IiNGMUYxRjEiIGhlaWdodD0iOTIuOTUzMSIgcng9IjIuNSIgcnk9IjIuNSIgc3R5bGU9InN0cm9rZTojMTgxODE4O3N0cm9rZS13aWR0aDowLjU7IiB3aWR0aD0iMTgwIiB4PSI3IiB5PSIyNDIuNSIvPjxlbGxpcHNlIGN4PSI0Ny42NSIgY3k9IjI1OC41IiBmaWxsPSIjQUREMUIyIiByeD0iMTEiIHJ5PSIxMSIgc3R5bGU9InN0cm9rZTojMTgxODE4O3N0cm9rZS13aWR0aDoxOyIvPjxwYXRoIGQ9Ik01MS4yNzUsMjY0LjUgTDUxLjI3NSwyNjIuNzUgTDQ1Ljk2MjUsMjYyLjc1IFE0NS45NjI1LDI2Mi43NSA0NS45NjI1LDI1OS4xODc1IEw1MC4yMTI1LDI1OS4xODc1IEw1MC4yMTI1LDI1Ny40Mzc1IEw0NS45NjI1LDI1Ny40Mzc1IEw0NS45NjI1LDI1NC45Mzc1IEw1MS4yNzUsMjU0LjkzNzUgTDUxLjI3NSwyNTMuMTg3NSBMNDQuMjEyNSwyNTMuMTg3NSBRNDQuMjEyNSwyNTMuMTg3NSA0NC4yMTI1LDI2NC41IEw1MS4yNzUsMjY0LjUgWiAiIGZpbGw9IiMwMDAwMDAiLz48dGV4dCBmaWxsPSIjMDAwMDAwIiBmb250LWZhbWlseT0ic2Fucy1zZXJpZiIgZm9udC1zaXplPSIxNCIgbGVuZ3RoQWRqdXN0PSJzcGFjaW5nIiB0ZXh0TGVuZ3RoPSI5MSIgeD0iNjcuMzUiIHk9IjI2NC4yNDIyIj5lYm9va3NfaW1hZ2VzPC90ZXh0PjxsaW5lIHN0eWxlPSJzdHJva2U6IzE4MTgxODtzdHJva2Utd2lkdGg6MC41OyIgeDE9IjgiIHgyPSIxODYiIHkxPSIyNzQuNSIgeTI9IjI3NC41Ii8+PGVsbGlwc2UgY3g9IjE4IiBjeT0iMjg3LjQ5MjIiIGZpbGw9Im5vbmUiIHJ4PSIzIiByeT0iMyIgc3R5bGU9InN0cm9rZTojMDM4MDQ4O3N0cm9rZS13aWR0aDoxOyIvPjx0ZXh0IGZpbGw9IiMwMDAwMDAiIGZvbnQtZmFtaWx5PSJzYW5zLXNlcmlmIiBmb250LXNpemU9IjE0IiBsZW5ndGhBZGp1c3Q9InNwYWNpbmciIHRleHRMZW5ndGg9IjE1NCIgeD0iMjciIHk9IjI5MS43MzQ0Ij5pbWFnZV9pZCA6IFNFUklBTCAmIzE3MTtQSyYjMTg3OzwvdGV4dD48dGV4dCBmaWxsPSIjMDAwMDAwIiBmb250LWZhbWlseT0ic2Fucy1zZXJpZiIgZm9udC1zaXplPSIxNCIgbGVuZ3RoQWRqdXN0PSJzcGFjaW5nIiB0ZXh0TGVuZ3RoPSIxMzMiIHg9IjI3IiB5PSIzMDYuNzE4OCI+ZWJvb2tfaWQgOiBJTlQgJiMxNzE7RksmIzE4Nzs8L3RleHQ+PHRleHQgZmlsbD0iIzAwMDAwMCIgZm9udC1mYW1pbHk9InNhbnMtc2VyaWYiIGZvbnQtc2l6ZT0iMTQiIGxlbmd0aEFkanVzdD0ic3BhY2luZyIgdGV4dExlbmd0aD0iMTEyIiB4PSIyNyIgeT0iMzIxLjcwMzEiPmltYWdlX3VybCA6IFRFWFQ8L3RleHQ+PGxpbmUgc3R5bGU9InN0cm9rZTojMTgxODE4O3N0cm9rZS13aWR0aDowLjU7IiB4MT0iOCIgeDI9IjE4NiIgeTE9IjMyNy40NTMxIiB5Mj0iMzI3LjQ1MzEiLz48L2c+PCEtLWNsYXNzIGNhcnRfaXRlbXMtLT48ZyBjbGFzcz0iZW50aXR5IiBkYXRhLWVudGl0eT0iY2FydF9pdGVtcyIgZGF0YS1zb3VyY2UtbGluZT0iNTIiIGRhdGEtdWlkPSJlbnQwMDA4IiBpZD0iZW50aXR5X2NhcnRfaXRlbXMiPjxyZWN0IGZpbGw9IiNGMUYxRjEiIGhlaWdodD0iMTIyLjkyMTkiIHJ4PSIyLjUiIHJ5PSIyLjUiIHN0eWxlPSJzdHJva2U6IzE4MTgxODtzdHJva2Utd2lkdGg6MC41OyIgd2lkdGg9IjIwOCIgeD0iMzQ2IiB5PSIyMjcuNSIvPjxlbGxpcHNlIGN4PSI0MTAuNzUiIGN5PSIyNDMuNSIgZmlsbD0iI0FERDFCMiIgcng9IjExIiByeT0iMTEiIHN0eWxlPSJzdHJva2U6IzE4MTgxODtzdHJva2Utd2lkdGg6MTsiLz48cGF0aCBkPSJNNDE0LjM3NSwyNDkuNSBMNDE0LjM3NSwyNDcuNzUgTDQwOS4wNjI1LDI0Ny43NSBRNDA5LjA2MjUsMjQ3Ljc1IDQwOS4wNjI1LDI0NC4xODc1IEw0MTMuMzEyNSwyNDQuMTg3NSBMNDEzLjMxMjUsMjQyLjQzNzUgTDQwOS4wNjI1LDI0Mi40Mzc1IEw0MDkuMDYyNSwyMzkuOTM3NSBMNDE0LjM3NSwyMzkuOTM3NSBMNDE0LjM3NSwyMzguMTg3NSBMNDA3LjMxMjUsMjM4LjE4NzUgUTQwNy4zMTI1LDIzOC4xODc1IDQwNy4zMTI1LDI0OS41IEw0MTQuMzc1LDI0OS41IFogIiBmaWxsPSIjMDAwMDAwIi8+PHRleHQgZmlsbD0iIzAwMDAwMCIgZm9udC1mYW1pbHk9InNhbnMtc2VyaWYiIGZvbnQtc2l6ZT0iMTQiIGxlbmd0aEFkanVzdD0ic3BhY2luZyIgdGV4dExlbmd0aD0iNzAiIHg9IjQzMS4yNSIgeT0iMjQ5LjI0MjIiPmNhcnRfaXRlbXM8L3RleHQ+PGxpbmUgc3R5bGU9InN0cm9rZTojMTgxODE4O3N0cm9rZS13aWR0aDowLjU7IiB4MT0iMzQ3IiB4Mj0iNTUzIiB5MT0iMjU5LjUiIHkyPSIyNTkuNSIvPjxlbGxpcHNlIGN4PSIzNTciIGN5PSIyNzIuNDkyMiIgZmlsbD0ibm9uZSIgcng9IjMiIHJ5PSIzIiBzdHlsZT0ic3Ryb2tlOiMwMzgwNDg7c3Ryb2tlLXdpZHRoOjE7Ii8+PHRleHQgZmlsbD0iIzAwMDAwMCIgZm9udC1mYW1pbHk9InNhbnMtc2VyaWYiIGZvbnQtc2l6ZT0iMTQiIGxlbmd0aEFkanVzdD0ic3BhY2luZyIgdGV4dExlbmd0aD0iMTgyIiB4PSIzNjYiIHk9IjI3Ni43MzQ0Ij5jYXJ0X2l0ZW1faWQgOiBTRVJJQUwgJiMxNzE7UEsmIzE4Nzs8L3RleHQ+PHRleHQgZmlsbD0iIzAwMDAwMCIgZm9udC1mYW1pbHk9InNhbnMtc2VyaWYiIGZvbnQtc2l6ZT0iMTQiIGxlbmd0aEFkanVzdD0ic3BhY2luZyIgdGV4dExlbmd0aD0iMTI2IiB4PSIzNjYiIHk9IjI5MS43MTg4Ij51c2VyX2lkIDogSU5UICYjMTcxO0ZLJiMxODc7PC90ZXh0Pjx0ZXh0IGZpbGw9IiMwMDAwMDAiIGZvbnQtZmFtaWx5PSJzYW5zLXNlcmlmIiBmb250LXNpemU9IjE0IiBsZW5ndGhBZGp1c3Q9InNwYWNpbmciIHRleHRMZW5ndGg9IjEzMyIgeD0iMzY2IiB5PSIzMDYuNzAzMSI+ZWJvb2tfaWQgOiBJTlQgJiMxNzE7RksmIzE4Nzs8L3RleHQ+PHRleHQgZmlsbD0iIzAwMDAwMCIgZm9udC1mYW1pbHk9InNhbnMtc2VyaWYiIGZvbnQtc2l6ZT0iMTQiIGxlbmd0aEFkanVzdD0ic3BhY2luZyIgdGV4dExlbmd0aD0iOTgiIHg9IjM2NiIgeT0iMzIxLjY4NzUiPnF1YW50aXR5IDogSU5UPC90ZXh0Pjx0ZXh0IGZpbGw9IiMwMDAwMDAiIGZvbnQtZmFtaWx5PSJzYW5zLXNlcmlmIiBmb250LXNpemU9IjE0IiBsZW5ndGhBZGp1c3Q9InNwYWNpbmciIHRleHRMZW5ndGg9IjE0MCIgeD0iMzY2IiB5PSIzMzYuNjcxOSI+YWRkZWRfYXQgOiBUSU1FU1RBTVA8L3RleHQ+PGxpbmUgc3R5bGU9InN0cm9rZTojMTgxODE4O3N0cm9rZS13aWR0aDowLjU7IiB4MT0iMzQ3IiB4Mj0iNTUzIiB5MT0iMzQyLjQyMTkiIHkyPSIzNDIuNDIxOSIvPjwvZz48IS0tY2xhc3Mgb3JkZXJzX3N0YXR1cy0tPjxnIGNsYXNzPSJlbnRpdHkiIGRhdGEtZW50aXR5PSJvcmRlcnNfc3RhdHVzIiBkYXRhLXNvdXJjZS1saW5lPSI2MCIgZGF0YS11aWQ9ImVudDAwMDkiIGlkPSJlbnRpdHlfb3JkZXJzX3N0YXR1cyI+PHJlY3QgZmlsbD0iI0YxRjFGMSIgaGVpZ2h0PSI5Mi45NTMxIiByeD0iMi41IiByeT0iMi41IiBzdHlsZT0ic3Ryb2tlOiMxODE4MTg7c3Ryb2tlLXdpZHRoOjAuNTsiIHdpZHRoPSIyMjIiIHg9IjY0NCIgeT0iNDc4Ii8+PGVsbGlwc2UgY3g9IjcwNS4yNSIgY3k9IjQ5NCIgZmlsbD0iI0FERDFCMiIgcng9IjExIiByeT0iMTEiIHN0eWxlPSJzdHJva2U6IzE4MTgxODtzdHJva2Utd2lkdGg6MTsiLz48cGF0aCBkPSJNNzA4Ljg3NSw1MDAgTDcwOC44NzUsNDk4LjI1IEw3MDMuNTYyNSw0OTguMjUgUTcwMy41NjI1LDQ5OC4yNSA3MDMuNTYyNSw0OTQuNjg3NSBMNzA3LjgxMjUsNDk0LjY4NzUgTDcwNy44MTI1LDQ5Mi45Mzc1IEw3MDMuNTYyNSw0OTIuOTM3NSBMNzAzLjU2MjUsNDkwLjQzNzUgTDcwOC44NzUsNDkwLjQzNzUgTDcwOC44NzUsNDg4LjY4NzUgTDcwMS44MTI1LDQ4OC42ODc1IFE3MDEuODEyNSw0ODguNjg3NSA3MDEuODEyNSw1MDAgTDcwOC44NzUsNTAwIFogIiBmaWxsPSIjMDAwMDAwIi8+PHRleHQgZmlsbD0iIzAwMDAwMCIgZm9udC1mYW1pbHk9InNhbnMtc2VyaWYiIGZvbnQtc2l6ZT0iMTQiIGxlbmd0aEFkanVzdD0ic3BhY2luZyIgdGV4dExlbmd0aD0iOTEiIHg9IjcyNS43NSIgeT0iNDk5Ljc0MjIiPm9yZGVyc19zdGF0dXM8L3RleHQ+PGxpbmUgc3R5bGU9InN0cm9rZTojMTgxODE4O3N0cm9rZS13aWR0aDowLjU7IiB4MT0iNjQ1IiB4Mj0iODY1IiB5MT0iNTEwIiB5Mj0iNTEwIi8+PGVsbGlwc2UgY3g9IjY1NSIgY3k9IjUyMi45OTIyIiBmaWxsPSJub25lIiByeD0iMyIgcnk9IjMiIHN0eWxlPSJzdHJva2U6IzAzODA0ODtzdHJva2Utd2lkdGg6MTsiLz48dGV4dCBmaWxsPSIjMDAwMDAwIiBmb250LWZhbWlseT0ic2Fucy1zZXJpZiIgZm9udC1zaXplPSIxNCIgbGVuZ3RoQWRqdXN0PSJzcGFjaW5nIiB0ZXh0TGVuZ3RoPSIxOTYiIHg9IjY2NCIgeT0iNTI3LjIzNDQiPm9yZGVyc3RhdHVzX2lkIDogU0VSSUFMICYjMTcxO1BLJiMxODc7PC90ZXh0PjxsaW5lIHN0eWxlPSJzdHJva2U6IzE4MTgxODtzdHJva2Utd2lkdGg6MC41OyIgeDE9IjY0NSIgeDI9Ijg2NSIgeTE9IjUzMi45ODQ0IiB5Mj0iNTMyLjk4NDQiLz48dGV4dCBmaWxsPSIjMDAwMDAwIiBmb250LWZhbWlseT0ic2Fucy1zZXJpZiIgZm9udC1zaXplPSIxNCIgbGVuZ3RoQWRqdXN0PSJzcGFjaW5nIiB0ZXh0TGVuZ3RoPSIxMzMiIHg9IjY1MCIgeT0iNTUwLjIxODgiPm5hbWUgOiBWQVJDSEFSKDEwMCk8L3RleHQ+PHRleHQgZmlsbD0iIzAwMDAwMCIgZm9udC1mYW1pbHk9InNhbnMtc2VyaWYiIGZvbnQtc2l6ZT0iMTQiIGxlbmd0aEFkanVzdD0ic3BhY2luZyIgdGV4dExlbmd0aD0iMTYxIiB4PSI2NTAiIHk9IjU2NS4yMDMxIj5jb2RlbmFtZSA6IFZBUkNIQVIoMTAwKTwvdGV4dD48L2c+PCEtLWNsYXNzIG9yZGVycy0tPjxnIGNsYXNzPSJlbnRpdHkiIGRhdGEtZW50aXR5PSJvcmRlcnMiIGRhdGEtc291cmNlLWxpbmU9IjY2IiBkYXRhLXVpZD0iZW50MDAxMCIgaWQ9ImVudGl0eV9vcmRlcnMiPjxyZWN0IGZpbGw9IiNGMUYxRjEiIGhlaWdodD0iMTM3LjkwNjMiIHJ4PSIyLjUiIHJ5PSIyLjUiIHN0eWxlPSJzdHJva2U6IzE4MTgxODtzdHJva2Utd2lkdGg6MC41OyIgd2lkdGg9IjE4MCIgeD0iNjY1IiB5PSIyMjAiLz48ZWxsaXBzZSBjeD0iNzI5Ljc1IiBjeT0iMjM2IiBmaWxsPSIjQUREMUIyIiByeD0iMTEiIHJ5PSIxMSIgc3R5bGU9InN0cm9rZTojMTgxODE4O3N0cm9rZS13aWR0aDoxOyIvPjxwYXRoIGQ9Ik03MzMuMzc1LDI0MiBMNzMzLjM3NSwyNDAuMjUgTDcyOC4wNjI1LDI0MC4yNSBRNzI4LjA2MjUsMjQwLjI1IDcyOC4wNjI1LDIzNi42ODc1IEw3MzIuMzEyNSwyMzYuNjg3NSBMNzMyLjMxMjUsMjM0LjkzNzUgTDcyOC4wNjI1LDIzNC45Mzc1IEw3MjguMDYyNSwyMzIuNDM3NSBMNzMzLjM3NSwyMzIuNDM3NSBMNzMzLjM3NSwyMzAuNjg3NSBMNzI2LjMxMjUsMjMwLjY4NzUgUTcyNi4zMTI1LDIzMC42ODc1IDcyNi4zMTI1LDI0MiBMNzMzLjM3NSwyNDIgWiAiIGZpbGw9IiMwMDAwMDAiLz48dGV4dCBmaWxsPSIjMDAwMDAwIiBmb250LWZhbWlseT0ic2Fucy1zZXJpZiIgZm9udC1zaXplPSIxNCIgbGVuZ3RoQWRqdXN0PSJzcGFjaW5nIiB0ZXh0TGVuZ3RoPSI0MiIgeD0iNzUwLjI1IiB5PSIyNDEuNzQyMiI+b3JkZXJzPC90ZXh0PjxsaW5lIHN0eWxlPSJzdHJva2U6IzE4MTgxODtzdHJva2Utd2lkdGg6MC41OyIgeDE9IjY2NiIgeDI9Ijg0NCIgeTE9IjI1MiIgeTI9IjI1MiIvPjxlbGxpcHNlIGN4PSI2NzYiIGN5PSIyNjQuOTkyMiIgZmlsbD0ibm9uZSIgcng9IjMiIHJ5PSIzIiBzdHlsZT0ic3Ryb2tlOiMwMzgwNDg7c3Ryb2tlLXdpZHRoOjE7Ii8+PHRleHQgZmlsbD0iIzAwMDAwMCIgZm9udC1mYW1pbHk9InNhbnMtc2VyaWYiIGZvbnQtc2l6ZT0iMTQiIGxlbmd0aEFkanVzdD0ic3BhY2luZyIgdGV4dExlbmd0aD0iMTU0IiB4PSI2ODUiIHk9IjI2OS4yMzQ0Ij5vcmRlcl9pZCA6IFNFUklBTCAmIzE3MTtQSyYjMTg3OzwvdGV4dD48dGV4dCBmaWxsPSIjMDAwMDAwIiBmb250LWZhbWlseT0ic2Fucy1zZXJpZiIgZm9udC1zaXplPSIxNCIgbGVuZ3RoQWRqdXN0PSJzcGFjaW5nIiB0ZXh0TGVuZ3RoPSIxMjYiIHg9IjY4NSIgeT0iMjg0LjIxODgiPnVzZXJfaWQgOiBJTlQgJiMxNzE7RksmIzE4Nzs8L3RleHQ+PHRleHQgZmlsbD0iIzAwMDAwMCIgZm9udC1mYW1pbHk9InNhbnMtc2VyaWYiIGZvbnQtc2l6ZT0iMTQiIGxlbmd0aEFkanVzdD0ic3BhY2luZyIgdGV4dExlbmd0aD0iMTQ3IiB4PSI2ODUiIHk9IjI5OS4yMDMxIj5hZGRyZXNzX2lkIDogSU5UICYjMTcxO0ZLJiMxODc7PC90ZXh0Pjx0ZXh0IGZpbGw9IiMwMDAwMDAiIGZvbnQtZmFtaWx5PSJzYW5zLXNlcmlmIiBmb250LXNpemU9IjE0IiBsZW5ndGhBZGp1c3Q9InNwYWNpbmciIHRleHRMZW5ndGg9IjExOSIgeD0iNjg1IiB5PSIzMTQuMTg3NSI+c3RhdHVzIDogSU5UICYjMTcxO0ZLJiMxODc7PC90ZXh0Pjx0ZXh0IGZpbGw9IiMwMDAwMDAiIGZvbnQtZmFtaWx5PSJzYW5zLXNlcmlmIiBmb250LXNpemU9IjE0IiBsZW5ndGhBZGp1c3Q9InNwYWNpbmciIHRleHRMZW5ndGg9IjE1NCIgeD0iNjg1IiB5PSIzMjkuMTcxOSI+Y3JlYXRlZF9hdCA6IFRJTUVTVEFNUDwvdGV4dD48bGluZSBzdHlsZT0ic3Ryb2tlOiMxODE4MTg7c3Ryb2tlLXdpZHRoOjAuNTsiIHgxPSI2NjYiIHgyPSI4NDQiIHkxPSIzMzQuOTIxOSIgeTI9IjMzNC45MjE5Ii8+PHRleHQgZmlsbD0iIzAwMDAwMCIgZm9udC1mYW1pbHk9InNhbnMtc2VyaWYiIGZvbnQtc2l6ZT0iMTQiIGxlbmd0aEFkanVzdD0ic3BhY2luZyIgdGV4dExlbmd0aD0iMTQ3IiB4PSI2NzEiIHk9IjM1Mi4xNTYzIj50b3RhbCA6IE5VTUVSSUMoMTIsMik8L3RleHQ+PC9nPjwhLS1jbGFzcyBvcmRlcl9pdGVtcy0tPjxnIGNsYXNzPSJlbnRpdHkiIGRhdGEtZW50aXR5PSJvcmRlcl9pdGVtcyIgZGF0YS1zb3VyY2UtbGluZT0iNzUiIGRhdGEtdWlkPSJlbnQwMDExIiBpZD0iZW50aXR5X29yZGVyX2l0ZW1zIj48cmVjdCBmaWxsPSIjRjFGMUYxIiBoZWlnaHQ9IjEyMi45MjE5IiByeD0iMi41IiByeT0iMi41IiBzdHlsZT0ic3Ryb2tlOiMxODE4MTg7c3Ryb2tlLXdpZHRoOjAuNTsiIHdpZHRoPSIyMTUiIHg9IjE4My41IiB5PSIxNC41Ii8+PGVsbGlwc2UgY3g9IjI0OC4yNSIgY3k9IjMwLjUiIGZpbGw9IiNBREQxQjIiIHJ4PSIxMSIgcnk9IjExIiBzdHlsZT0ic3Ryb2tlOiMxODE4MTg7c3Ryb2tlLXdpZHRoOjE7Ii8+PHBhdGggZD0iTTI1MS44NzUsMzYuNSBMMjUxLjg3NSwzNC43NSBMMjQ2LjU2MjUsMzQuNzUgUTI0Ni41NjI1LDM0Ljc1IDI0Ni41NjI1LDMxLjE4NzUgTDI1MC44MTI1LDMxLjE4NzUgTDI1MC44MTI1LDI5LjQzNzUgTDI0Ni41NjI1LDI5LjQzNzUgTDI0Ni41NjI1LDI2LjkzNzUgTDI1MS44NzUsMjYuOTM3NSBMMjUxLjg3NSwyNS4xODc1IEwyNDQuODEyNSwyNS4xODc1IFEyNDQuODEyNSwyNS4xODc1IDI0NC44MTI1LDM2LjUgTDI1MS44NzUsMzYuNSBaICIgZmlsbD0iIzAwMDAwMCIvPjx0ZXh0IGZpbGw9IiMwMDAwMDAiIGZvbnQtZmFtaWx5PSJzYW5zLXNlcmlmIiBmb250LXNpemU9IjE0IiBsZW5ndGhBZGp1c3Q9InNwYWNpbmciIHRleHRMZW5ndGg9Ijc3IiB4PSIyNjguNzUiIHk9IjM2LjI0MjIiPm9yZGVyX2l0ZW1zPC90ZXh0PjxsaW5lIHN0eWxlPSJzdHJva2U6IzE4MTgxODtzdHJva2Utd2lkdGg6MC41OyIgeDE9IjE4NC41IiB4Mj0iMzk3LjUiIHkxPSI0Ni41IiB5Mj0iNDYuNSIvPjxlbGxpcHNlIGN4PSIxOTQuNSIgY3k9IjU5LjQ5MjIiIGZpbGw9Im5vbmUiIHJ4PSIzIiByeT0iMyIgc3R5bGU9InN0cm9rZTojMDM4MDQ4O3N0cm9rZS13aWR0aDoxOyIvPjx0ZXh0IGZpbGw9IiMwMDAwMDAiIGZvbnQtZmFtaWx5PSJzYW5zLXNlcmlmIiBmb250LXNpemU9IjE0IiBsZW5ndGhBZGp1c3Q9InNwYWNpbmciIHRleHRMZW5ndGg9IjE4OSIgeD0iMjAzLjUiIHk9IjYzLjczNDQiPm9yZGVyX2l0ZW1faWQgOiBTRVJJQUwgJiMxNzE7UEsmIzE4Nzs8L3RleHQ+PHRleHQgZmlsbD0iIzAwMDAwMCIgZm9udC1mYW1pbHk9InNhbnMtc2VyaWYiIGZvbnQtc2l6ZT0iMTQiIGxlbmd0aEFkanVzdD0ic3BhY2luZyIgdGV4dExlbmd0aD0iMTMzIiB4PSIyMDMuNSIgeT0iNzguNzE4OCI+b3JkZXJfaWQgOiBJTlQgJiMxNzE7RksmIzE4Nzs8L3RleHQ+PHRleHQgZmlsbD0iIzAwMDAwMCIgZm9udC1mYW1pbHk9InNhbnMtc2VyaWYiIGZvbnQtc2l6ZT0iMTQiIGxlbmd0aEFkanVzdD0ic3BhY2luZyIgdGV4dExlbmd0aD0iMTMzIiB4PSIyMDMuNSIgeT0iOTMuNzAzMSI+ZWJvb2tfaWQgOiBJTlQgJiMxNzE7RksmIzE4Nzs8L3RleHQ+PHRleHQgZmlsbD0iIzAwMDAwMCIgZm9udC1mYW1pbHk9InNhbnMtc2VyaWYiIGZvbnQtc2l6ZT0iMTQiIGxlbmd0aEFkanVzdD0ic3BhY2luZyIgdGV4dExlbmd0aD0iOTgiIHg9IjIwMy41IiB5PSIxMDguNjg3NSI+cXVhbnRpdHkgOiBJTlQ8L3RleHQ+PGxpbmUgc3R5bGU9InN0cm9rZTojMTgxODE4O3N0cm9rZS13aWR0aDowLjU7IiB4MT0iMTg0LjUiIHgyPSIzOTcuNSIgeTE9IjExNC40Mzc1IiB5Mj0iMTE0LjQzNzUiLz48dGV4dCBmaWxsPSIjMDAwMDAwIiBmb250LWZhbWlseT0ic2Fucy1zZXJpZiIgZm9udC1zaXplPSIxNCIgbGVuZ3RoQWRqdXN0PSJzcGFjaW5nIiB0ZXh0TGVuZ3RoPSIxNDciIHg9IjE4OS41IiB5PSIxMzEuNjcxOSI+cHJpY2UgOiBOVU1FUklDKDEwLDIpPC90ZXh0PjwvZz48IS0tY2xhc3MgcGF5bWVudHNfc3RhdHVzLS0+PGcgY2xhc3M9ImVudGl0eSIgZGF0YS1lbnRpdHk9InBheW1lbnRzX3N0YXR1cyIgZGF0YS1zb3VyY2UtbGluZT0iODMiIGRhdGEtdWlkPSJlbnQwMDEyIiBpZD0iZW50aXR5X3BheW1lbnRzX3N0YXR1cyI+PHJlY3QgZmlsbD0iI0YxRjFGMSIgaGVpZ2h0PSI5Mi45NTMxIiByeD0iMi41IiByeT0iMi41IiBzdHlsZT0ic3Ryb2tlOiMxODE4MTg7c3Ryb2tlLXdpZHRoOjAuNTsiIHdpZHRoPSIxOTQiIHg9Ijg4MCIgeT0iMjQyLjUiLz48ZWxsaXBzZSBjeD0iOTIwLjY1IiBjeT0iMjU4LjUiIGZpbGw9IiNBREQxQjIiIHJ4PSIxMSIgcnk9IjExIiBzdHlsZT0ic3Ryb2tlOiMxODE4MTg7c3Ryb2tlLXdpZHRoOjE7Ii8+PHBhdGggZD0iTTkyNC4yNzUsMjY0LjUgTDkyNC4yNzUsMjYyLjc1IEw5MTguOTYyNSwyNjIuNzUgUTkxOC45NjI1LDI2Mi43NSA5MTguOTYyNSwyNTkuMTg3NSBMOTIzLjIxMjUsMjU5LjE4NzUgTDkyMy4yMTI1LDI1Ny40Mzc1IEw5MTguOTYyNSwyNTcuNDM3NSBMOTE4Ljk2MjUsMjU0LjkzNzUgTDkyNC4yNzUsMjU0LjkzNzUgTDkyNC4yNzUsMjUzLjE4NzUgTDkxNy4yMTI1LDI1My4xODc1IFE5MTcuMjEyNSwyNTMuMTg3NSA5MTcuMjEyNSwyNjQuNSBMOTI0LjI3NSwyNjQuNSBaICIgZmlsbD0iIzAwMDAwMCIvPjx0ZXh0IGZpbGw9IiMwMDAwMDAiIGZvbnQtZmFtaWx5PSJzYW5zLXNlcmlmIiBmb250LXNpemU9IjE0IiBsZW5ndGhBZGp1c3Q9InNwYWNpbmciIHRleHRMZW5ndGg9IjEwNSIgeD0iOTQwLjM1IiB5PSIyNjQuMjQyMiI+cGF5bWVudHNfc3RhdHVzPC90ZXh0PjxsaW5lIHN0eWxlPSJzdHJva2U6IzE4MTgxODtzdHJva2Utd2lkdGg6MC41OyIgeDE9Ijg4MSIgeDI9IjEwNzMiIHkxPSIyNzQuNSIgeTI9IjI3NC41Ii8+PGVsbGlwc2UgY3g9Ijg5MSIgY3k9IjI4Ny40OTIyIiBmaWxsPSJub25lIiByeD0iMyIgcnk9IjMiIHN0eWxlPSJzdHJva2U6IzAzODA0ODtzdHJva2Utd2lkdGg6MTsiLz48dGV4dCBmaWxsPSIjMDAwMDAwIiBmb250LWZhbWlseT0ic2Fucy1zZXJpZiIgZm9udC1zaXplPSIxNCIgbGVuZ3RoQWRqdXN0PSJzcGFjaW5nIiB0ZXh0TGVuZ3RoPSIxNjgiIHg9IjkwMCIgeT0iMjkxLjczNDQiPnBzdGF0dXNfaWQgOiBTRVJJQUwgJiMxNzE7UEsmIzE4Nzs8L3RleHQ+PGxpbmUgc3R5bGU9InN0cm9rZTojMTgxODE4O3N0cm9rZS13aWR0aDowLjU7IiB4MT0iODgxIiB4Mj0iMTA3MyIgeTE9IjI5Ny40ODQ0IiB5Mj0iMjk3LjQ4NDQiLz48dGV4dCBmaWxsPSIjMDAwMDAwIiBmb250LWZhbWlseT0ic2Fucy1zZXJpZiIgZm9udC1zaXplPSIxNCIgbGVuZ3RoQWRqdXN0PSJzcGFjaW5nIiB0ZXh0TGVuZ3RoPSIxMzMiIHg9Ijg4NiIgeT0iMzE0LjcxODgiPm5hbWUgOiBWQVJDSEFSKDEwMCk8L3RleHQ+PHRleHQgZmlsbD0iIzAwMDAwMCIgZm9udC1mYW1pbHk9InNhbnMtc2VyaWYiIGZvbnQtc2l6ZT0iMTQiIGxlbmd0aEFkanVzdD0ic3BhY2luZyIgdGV4dExlbmd0aD0iMTYxIiB4PSI4ODYiIHk9IjMyOS43MDMxIj5jb2RlbmFtZSA6IFZBUkNIQVIoMTAwKTwvdGV4dD48L2c+PCEtLWNsYXNzIHBheW1lbnRzLS0+PGcgY2xhc3M9ImVudGl0eSIgZGF0YS1lbnRpdHk9InBheW1lbnRzIiBkYXRhLXNvdXJjZS1saW5lPSI4OSIgZGF0YS11aWQ9ImVudDAwMTMiIGlkPSJlbnRpdHlfcGF5bWVudHMiPjxyZWN0IGZpbGw9IiNGMUYxRjEiIGhlaWdodD0iMTM3LjkwNjMiIHJ4PSIyLjUiIHJ5PSIyLjUiIHN0eWxlPSJzdHJva2U6IzE4MTgxODtzdHJva2Utd2lkdGg6MC41OyIgd2lkdGg9IjE5NCIgeD0iODQ3IiB5PSI3Ii8+PGVsbGlwc2UgY3g9IjkxMS43NSIgY3k9IjIzIiBmaWxsPSIjQUREMUIyIiByeD0iMTEiIHJ5PSIxMSIgc3R5bGU9InN0cm9rZTojMTgxODE4O3N0cm9rZS13aWR0aDoxOyIvPjxwYXRoIGQ9Ik05MTUuMzc1LDI5IEw5MTUuMzc1LDI3LjI1IEw5MTAuMDYyNSwyNy4yNSBROTEwLjA2MjUsMjcuMjUgOTEwLjA2MjUsMjMuNjg3NSBMOTE0LjMxMjUsMjMuNjg3NSBMOTE0LjMxMjUsMjEuOTM3NSBMOTEwLjA2MjUsMjEuOTM3NSBMOTEwLjA2MjUsMTkuNDM3NSBMOTE1LjM3NSwxOS40Mzc1IEw5MTUuMzc1LDE3LjY4NzUgTDkwOC4zMTI1LDE3LjY4NzUgUTkwOC4zMTI1LDE3LjY4NzUgOTA4LjMxMjUsMjkgTDkxNS4zNzUsMjkgWiAiIGZpbGw9IiMwMDAwMDAiLz48dGV4dCBmaWxsPSIjMDAwMDAwIiBmb250LWZhbWlseT0ic2Fucy1zZXJpZiIgZm9udC1zaXplPSIxNCIgbGVuZ3RoQWRqdXN0PSJzcGFjaW5nIiB0ZXh0TGVuZ3RoPSI1NiIgeD0iOTMyLjI1IiB5PSIyOC43NDIyIj5wYXltZW50czwvdGV4dD48bGluZSBzdHlsZT0ic3Ryb2tlOiMxODE4MTg7c3Ryb2tlLXdpZHRoOjAuNTsiIHgxPSI4NDgiIHgyPSIxMDQwIiB5MT0iMzkiIHkyPSIzOSIvPjxlbGxpcHNlIGN4PSI4NTgiIGN5PSI1MS45OTIyIiBmaWxsPSJub25lIiByeD0iMyIgcnk9IjMiIHN0eWxlPSJzdHJva2U6IzAzODA0ODtzdHJva2Utd2lkdGg6MTsiLz48dGV4dCBmaWxsPSIjMDAwMDAwIiBmb250LWZhbWlseT0ic2Fucy1zZXJpZiIgZm9udC1zaXplPSIxNCIgbGVuZ3RoQWRqdXN0PSJzcGFjaW5nIiB0ZXh0TGVuZ3RoPSIxNjgiIHg9Ijg2NyIgeT0iNTYuMjM0NCI+cGF5bWVudF9pZCA6IFNFUklBTCAmIzE3MTtQSyYjMTg3OzwvdGV4dD48dGV4dCBmaWxsPSIjMDAwMDAwIiBmb250LWZhbWlseT0ic2Fucy1zZXJpZiIgZm9udC1zaXplPSIxNCIgbGVuZ3RoQWRqdXN0PSJzcGFjaW5nIiB0ZXh0TGVuZ3RoPSIxMzMiIHg9Ijg2NyIgeT0iNzEuMjE4OCI+b3JkZXJfaWQgOiBJTlQgJiMxNzE7RksmIzE4Nzs8L3RleHQ+PHRleHQgZmlsbD0iIzAwMDAwMCIgZm9udC1mYW1pbHk9InNhbnMtc2VyaWYiIGZvbnQtc2l6ZT0iMTQiIGxlbmd0aEFkanVzdD0ic3BhY2luZyIgdGV4dExlbmd0aD0iMTQ3IiB4PSI4NjciIHk9Ijg2LjIwMzEiPnBzdGF0dXNfaWQgOiBJTlQgJiMxNzE7RksmIzE4Nzs8L3RleHQ+PHRleHQgZmlsbD0iIzAwMDAwMCIgZm9udC1mYW1pbHk9InNhbnMtc2VyaWYiIGZvbnQtc2l6ZT0iMTQiIGxlbmd0aEFkanVzdD0ic3BhY2luZyIgdGV4dExlbmd0aD0iMTMzIiB4PSI4NjciIHk9IjEwMS4xODc1Ij5wYWlkX2F0IDogVElNRVNUQU1QPC90ZXh0PjxsaW5lIHN0eWxlPSJzdHJva2U6IzE4MTgxODtzdHJva2Utd2lkdGg6MC41OyIgeDE9Ijg0OCIgeDI9IjEwNDAiIHkxPSIxMDYuOTM3NSIgeTI9IjEwNi45Mzc1Ii8+PHRleHQgZmlsbD0iIzAwMDAwMCIgZm9udC1mYW1pbHk9InNhbnMtc2VyaWYiIGZvbnQtc2l6ZT0iMTQiIGxlbmd0aEFkanVzdD0ic3BhY2luZyIgdGV4dExlbmd0aD0iMTQwIiB4PSI4NTMiIHk9IjEyNC4xNzE5Ij5tZXRob2QgOiBWQVJDSEFSKDUwKTwvdGV4dD48dGV4dCBmaWxsPSIjMDAwMDAwIiBmb250LWZhbWlseT0ic2Fucy1zZXJpZiIgZm9udC1zaXplPSIxNCIgbGVuZ3RoQWRqdXN0PSJzcGFjaW5nIiB0ZXh0TGVuZ3RoPSIxNTQiIHg9Ijg1MyIgeT0iMTM5LjE1NjMiPmFtb3VudCA6IE5VTUVSSUMoMTIsMik8L3RleHQ+PC9nPjwhLS1jbGFzcyBpbnZvaWNlcy0tPjxnIGNsYXNzPSJlbnRpdHkiIGRhdGEtZW50aXR5PSJpbnZvaWNlcyIgZGF0YS1zb3VyY2UtbGluZT0iOTgiIGRhdGEtdWlkPSJlbnQwMDE0IiBpZD0iZW50aXR5X2ludm9pY2VzIj48cmVjdCBmaWxsPSIjRjFGMUYxIiBoZWlnaHQ9IjEzNy45MDYzIiByeD0iMi41IiByeT0iMi41IiBzdHlsZT0ic3Ryb2tlOiMxODE4MTg7c3Ryb2tlLXdpZHRoOjAuNTsiIHdpZHRoPSIxOTQiIHg9IjU1NyIgeT0iNyIvPjxlbGxpcHNlIGN4PSI2MjEuNzUiIGN5PSIyMyIgZmlsbD0iI0FERDFCMiIgcng9IjExIiByeT0iMTEiIHN0eWxlPSJzdHJva2U6IzE4MTgxODtzdHJva2Utd2lkdGg6MTsiLz48cGF0aCBkPSJNNjI1LjM3NSwyOSBMNjI1LjM3NSwyNy4yNSBMNjIwLjA2MjUsMjcuMjUgUTYyMC4wNjI1LDI3LjI1IDYyMC4wNjI1LDIzLjY4NzUgTDYyNC4zMTI1LDIzLjY4NzUgTDYyNC4zMTI1LDIxLjkzNzUgTDYyMC4wNjI1LDIxLjkzNzUgTDYyMC4wNjI1LDE5LjQzNzUgTDYyNS4zNzUsMTkuNDM3NSBMNjI1LjM3NSwxNy42ODc1IEw2MTguMzEyNSwxNy42ODc1IFE2MTguMzEyNSwxNy42ODc1IDYxOC4zMTI1LDI5IEw2MjUuMzc1LDI5IFogIiBmaWxsPSIjMDAwMDAwIi8+PHRleHQgZmlsbD0iIzAwMDAwMCIgZm9udC1mYW1pbHk9InNhbnMtc2VyaWYiIGZvbnQtc2l6ZT0iMTQiIGxlbmd0aEFkanVzdD0ic3BhY2luZyIgdGV4dExlbmd0aD0iNTYiIHg9IjY0Mi4yNSIgeT0iMjguNzQyMiI+aW52b2ljZXM8L3RleHQ+PGxpbmUgc3R5bGU9InN0cm9rZTojMTgxODE4O3N0cm9rZS13aWR0aDowLjU7IiB4MT0iNTU4IiB4Mj0iNzUwIiB5MT0iMzkiIHkyPSIzOSIvPjxlbGxpcHNlIGN4PSI1NjgiIGN5PSI1MS45OTIyIiBmaWxsPSJub25lIiByeD0iMyIgcnk9IjMiIHN0eWxlPSJzdHJva2U6IzAzODA0ODtzdHJva2Utd2lkdGg6MTsiLz48dGV4dCBmaWxsPSIjMDAwMDAwIiBmb250LWZhbWlseT0ic2Fucy1zZXJpZiIgZm9udC1zaXplPSIxNCIgbGVuZ3RoQWRqdXN0PSJzcGFjaW5nIiB0ZXh0TGVuZ3RoPSIxNjgiIHg9IjU3NyIgeT0iNTYuMjM0NCI+aW52b2ljZV9pZCA6IFNFUklBTCAmIzE3MTtQSyYjMTg3OzwvdGV4dD48dGV4dCBmaWxsPSIjMDAwMDAwIiBmb250LWZhbWlseT0ic2Fucy1zZXJpZiIgZm9udC1zaXplPSIxNCIgbGVuZ3RoQWRqdXN0PSJzcGFjaW5nIiB0ZXh0TGVuZ3RoPSIxMzMiIHg9IjU3NyIgeT0iNzEuMjE4OCI+b3JkZXJfaWQgOiBJTlQgJiMxNzE7RksmIzE4Nzs8L3RleHQ+PHRleHQgZmlsbD0iIzAwMDAwMCIgZm9udC1mYW1pbHk9InNhbnMtc2VyaWYiIGZvbnQtc2l6ZT0iMTQiIGxlbmd0aEFkanVzdD0ic3BhY2luZyIgdGV4dExlbmd0aD0iMTI2IiB4PSI1NzciIHk9Ijg2LjIwMzEiPnVzZXJfaWQgOiBJTlQgJiMxNzE7RksmIzE4Nzs8L3RleHQ+PHRleHQgZmlsbD0iIzAwMDAwMCIgZm9udC1mYW1pbHk9InNhbnMtc2VyaWYiIGZvbnQtc2l6ZT0iMTQiIGxlbmd0aEFkanVzdD0ic3BhY2luZyIgdGV4dExlbmd0aD0iMTQ3IiB4PSI1NzciIHk9IjEwMS4xODc1Ij5pc3N1ZWRfYXQgOiBUSU1FU1RBTVA8L3RleHQ+PHRleHQgZmlsbD0iIzAwMDAwMCIgZm9udC1mYW1pbHk9InNhbnMtc2VyaWYiIGZvbnQtc2l6ZT0iMTQiIGxlbmd0aEFkanVzdD0ic3BhY2luZyIgdGV4dExlbmd0aD0iOTgiIHg9IjU3NyIgeT0iMTE2LjE3MTkiPnBkZl91cmwgOiBURVhUPC90ZXh0PjxsaW5lIHN0eWxlPSJzdHJva2U6IzE4MTgxODtzdHJva2Utd2lkdGg6MC41OyIgeDE9IjU1OCIgeDI9Ijc1MCIgeTE9IjEyMS45MjE5IiB5Mj0iMTIxLjkyMTkiLz48dGV4dCBmaWxsPSIjMDAwMDAwIiBmb250LWZhbWlseT0ic2Fucy1zZXJpZiIgZm9udC1zaXplPSIxNCIgbGVuZ3RoQWRqdXN0PSJzcGFjaW5nIiB0ZXh0TGVuZ3RoPSIxNDciIHg9IjU2MyIgeT0iMTM5LjE1NjMiPnRvdGFsIDogTlVNRVJJQygxMCwyKTwvdGV4dD48L2c+PCEtLWNsYXNzIHNlbGxlcl9yZXF1ZXN0X3N0YXR1cy0tPjxnIGNsYXNzPSJlbnRpdHkiIGRhdGEtZW50aXR5PSJzZWxsZXJfcmVxdWVzdF9zdGF0dXMiIGRhdGEtc291cmNlLWxpbmU9IjEwNyIgZGF0YS11aWQ9ImVudDAwMTUiIGlkPSJlbnRpdHlfc2VsbGVyX3JlcXVlc3Rfc3RhdHVzIj48cmVjdCBmaWxsPSIjRjFGMUYxIiBoZWlnaHQ9IjkyLjk1MzEiIHJ4PSIyLjUiIHJ5PSIyLjUiIHN0eWxlPSJzdHJva2U6IzE4MTgxODtzdHJva2Utd2lkdGg6MC41OyIgd2lkdGg9IjIwOCIgeD0iMTI0NyIgeT0iNzIxIi8+PGVsbGlwc2UgY3g9IjEyNzUuMDUiIGN5PSI3MzciIGZpbGw9IiNBREQxQjIiIHJ4PSIxMSIgcnk9IjExIiBzdHlsZT0ic3Ryb2tlOiMxODE4MTg7c3Ryb2tlLXdpZHRoOjE7Ii8+PHBhdGggZD0iTTEyNzguNjc1LDc0MyBMMTI3OC42NzUsNzQxLjI1IEwxMjczLjM2MjUsNzQxLjI1IFExMjczLjM2MjUsNzQxLjI1IDEyNzMuMzYyNSw3MzcuNjg3NSBMMTI3Ny42MTI1LDczNy42ODc1IEwxMjc3LjYxMjUsNzM1LjkzNzUgTDEyNzMuMzYyNSw3MzUuOTM3NSBMMTI3My4zNjI1LDczMy40Mzc1IEwxMjc4LjY3NSw3MzMuNDM3NSBMMTI3OC42NzUsNzMxLjY4NzUgTDEyNzEuNjEyNSw3MzEuNjg3NSBRMTI3MS42MTI1LDczMS42ODc1IDEyNzEuNjEyNSw3NDMgTDEyNzguNjc1LDc0MyBaICIgZmlsbD0iIzAwMDAwMCIvPjx0ZXh0IGZpbGw9IiMwMDAwMDAiIGZvbnQtZmFtaWx5PSJzYW5zLXNlcmlmIiBmb250LXNpemU9IjE0IiBsZW5ndGhBZGp1c3Q9InNwYWNpbmciIHRleHRMZW5ndGg9IjE0NyIgeD0iMTI5MS45NSIgeT0iNzQyLjc0MjIiPnNlbGxlcl9yZXF1ZXN0X3N0YXR1czwvdGV4dD48bGluZSBzdHlsZT0ic3Ryb2tlOiMxODE4MTg7c3Ryb2tlLXdpZHRoOjAuNTsiIHgxPSIxMjQ4IiB4Mj0iMTQ1NCIgeTE9Ijc1MyIgeTI9Ijc1MyIvPjxlbGxpcHNlIGN4PSIxMjU4IiBjeT0iNzY1Ljk5MjIiIGZpbGw9Im5vbmUiIHJ4PSIzIiByeT0iMyIgc3R5bGU9InN0cm9rZTojMDM4MDQ4O3N0cm9rZS13aWR0aDoxOyIvPjx0ZXh0IGZpbGw9IiMwMDAwMDAiIGZvbnQtZmFtaWx5PSJzYW5zLXNlcmlmIiBmb250LXNpemU9IjE0IiBsZW5ndGhBZGp1c3Q9InNwYWNpbmciIHRleHRMZW5ndGg9IjE4MiIgeD0iMTI2NyIgeT0iNzcwLjIzNDQiPnNyX3N0YXR1c19pZCA6IFNFUklBTCAmIzE3MTtQSyYjMTg3OzwvdGV4dD48bGluZSBzdHlsZT0ic3Ryb2tlOiMxODE4MTg7c3Ryb2tlLXdpZHRoOjAuNTsiIHgxPSIxMjQ4IiB4Mj0iMTQ1NCIgeTE9Ijc3NS45ODQ0IiB5Mj0iNzc1Ljk4NDQiLz48dGV4dCBmaWxsPSIjMDAwMDAwIiBmb250LWZhbWlseT0ic2Fucy1zZXJpZiIgZm9udC1zaXplPSIxNCIgbGVuZ3RoQWRqdXN0PSJzcGFjaW5nIiB0ZXh0TGVuZ3RoPSIxMzMiIHg9IjEyNTMiIHk9Ijc5My4yMTg4Ij5uYW1lIDogVkFSQ0hBUigxMDApPC90ZXh0Pjx0ZXh0IGZpbGw9IiMwMDAwMDAiIGZvbnQtZmFtaWx5PSJzYW5zLXNlcmlmIiBmb250LXNpemU9IjE0IiBsZW5ndGhBZGp1c3Q9InNwYWNpbmciIHRleHRMZW5ndGg9IjE2MSIgeD0iMTI1MyIgeT0iODA4LjIwMzEiPmNvZGVuYW1lIDogVkFSQ0hBUigxMDApPC90ZXh0PjwvZz48IS0tY2xhc3Mgc2VsbGVyX3JlcXVlc3RzLS0+PGcgY2xhc3M9ImVudGl0eSIgZGF0YS1lbnRpdHk9InNlbGxlcl9yZXF1ZXN0cyIgZGF0YS1zb3VyY2UtbGluZT0iMTEzIiBkYXRhLXVpZD0iZW50MDAxNiIgaWQ9ImVudGl0eV9zZWxsZXJfcmVxdWVzdHMiPjxyZWN0IGZpbGw9IiNGMUYxRjEiIGhlaWdodD0iMTM3LjkwNjMiIHJ4PSIyLjUiIHJ5PSIyLjUiIHN0eWxlPSJzdHJva2U6IzE4MTgxODtzdHJva2Utd2lkdGg6MC41OyIgd2lkdGg9IjIwOCIgeD0iMTI0NyIgeT0iNDU1LjUiLz48ZWxsaXBzZSBjeD0iMTI5NC4yNSIgY3k9IjQ3MS41IiBmaWxsPSIjQUREMUIyIiByeD0iMTEiIHJ5PSIxMSIgc3R5bGU9InN0cm9rZTojMTgxODE4O3N0cm9rZS13aWR0aDoxOyIvPjxwYXRoIGQ9Ik0xMjk3Ljg3NSw0NzcuNSBMMTI5Ny44NzUsNDc1Ljc1IEwxMjkyLjU2MjUsNDc1Ljc1IFExMjkyLjU2MjUsNDc1Ljc1IDEyOTIuNTYyNSw0NzIuMTg3NSBMMTI5Ni44MTI1LDQ3Mi4xODc1IEwxMjk2LjgxMjUsNDcwLjQzNzUgTDEyOTIuNTYyNSw0NzAuNDM3NSBMMTI5Mi41NjI1LDQ2Ny45Mzc1IEwxMjk3Ljg3NSw0NjcuOTM3NSBMMTI5Ny44NzUsNDY2LjE4NzUgTDEyOTAuODEyNSw0NjYuMTg3NSBRMTI5MC44MTI1LDQ2Ni4xODc1IDEyOTAuODEyNSw0NzcuNSBMMTI5Ny44NzUsNDc3LjUgWiAiIGZpbGw9IiMwMDAwMDAiLz48dGV4dCBmaWxsPSIjMDAwMDAwIiBmb250LWZhbWlseT0ic2Fucy1zZXJpZiIgZm9udC1zaXplPSIxNCIgbGVuZ3RoQWRqdXN0PSJzcGFjaW5nIiB0ZXh0TGVuZ3RoPSIxMDUiIHg9IjEzMTQuNzUiIHk9IjQ3Ny4yNDIyIj5zZWxsZXJfcmVxdWVzdHM8L3RleHQ+PGxpbmUgc3R5bGU9InN0cm9rZTojMTgxODE4O3N0cm9rZS13aWR0aDowLjU7IiB4MT0iMTI0OCIgeDI9IjE0NTQiIHkxPSI0ODcuNSIgeTI9IjQ4Ny41Ii8+PGVsbGlwc2UgY3g9IjEyNTgiIGN5PSI1MDAuNDkyMiIgZmlsbD0ibm9uZSIgcng9IjMiIHJ5PSIzIiBzdHlsZT0ic3Ryb2tlOiMwMzgwNDg7c3Ryb2tlLXdpZHRoOjE7Ii8+PHRleHQgZmlsbD0iIzAwMDAwMCIgZm9udC1mYW1pbHk9InNhbnMtc2VyaWYiIGZvbnQtc2l6ZT0iMTQiIGxlbmd0aEFkanVzdD0ic3BhY2luZyIgdGV4dExlbmd0aD0iMTY4IiB4PSIxMjY3IiB5PSI1MDQuNzM0NCI+cmVxdWVzdF9pZCA6IFNFUklBTCAmIzE3MTtQSyYjMTg3OzwvdGV4dD48dGV4dCBmaWxsPSIjMDAwMDAwIiBmb250LWZhbWlseT0ic2Fucy1zZXJpZiIgZm9udC1zaXplPSIxNCIgbGVuZ3RoQWRqdXN0PSJzcGFjaW5nIiB0ZXh0TGVuZ3RoPSIxMjYiIHg9IjEyNjciIHk9IjUxOS43MTg4Ij51c2VyX2lkIDogSU5UICYjMTcxO0ZLJiMxODc7PC90ZXh0Pjx0ZXh0IGZpbGw9IiMwMDAwMDAiIGZvbnQtZmFtaWx5PSJzYW5zLXNlcmlmIiBmb250LXNpemU9IjE0IiBsZW5ndGhBZGp1c3Q9InNwYWNpbmciIHRleHRMZW5ndGg9IjE2MSIgeD0iMTI2NyIgeT0iNTM0LjcwMzEiPnNyX3N0YXR1c19pZCA6IElOVCAmIzE3MTtGSyYjMTg3OzwvdGV4dD48dGV4dCBmaWxsPSIjMDAwMDAwIiBmb250LWZhbWlseT0ic2Fucy1zZXJpZiIgZm9udC1zaXplPSIxNCIgbGVuZ3RoQWRqdXN0PSJzcGFjaW5nIiB0ZXh0TGVuZ3RoPSIxNTQiIHg9IjEyNjciIHk9IjU0OS42ODc1Ij5jcmVhdGVkX2F0IDogVElNRVNUQU1QPC90ZXh0PjxsaW5lIHN0eWxlPSJzdHJva2U6IzE4MTgxODtzdHJva2Utd2lkdGg6MC41OyIgeDE9IjEyNDgiIHgyPSIxNDU0IiB5MT0iNTU1LjQzNzUiIHkyPSI1NTUuNDM3NSIvPjx0ZXh0IGZpbGw9IiMwMDAwMDAiIGZvbnQtZmFtaWx5PSJzYW5zLXNlcmlmIiBmb250LXNpemU9IjE0IiBsZW5ndGhBZGp1c3Q9InNwYWNpbmciIHRleHRMZW5ndGg9IjE5NiIgeD0iMTI1MyIgeT0iNTcyLjY3MTkiPmJ1c2luZXNzX25hbWUgOiBWQVJDSEFSKDE1MCk8L3RleHQ+PHRleHQgZmlsbD0iIzAwMDAwMCIgZm9udC1mYW1pbHk9InNhbnMtc2VyaWYiIGZvbnQtc2l6ZT0iMTQiIGxlbmd0aEFkanVzdD0ic3BhY2luZyIgdGV4dExlbmd0aD0iMTc1IiB4PSIxMjUzIiB5PSI1ODcuNjU2MyI+ZG9jdW1lbnRfaWQgOiBWQVJDSEFSKDUwKTwvdGV4dD48L2c+PCEtLWxpbmsgdXNlcnMgdG8gcm9sZXMtLT48ZyBjbGFzcz0ibGluayIgZGF0YS1lbnRpdHktMT0idXNlcnMiIGRhdGEtZW50aXR5LTI9InJvbGVzIiBkYXRhLXNvdXJjZS1saW5lPSIxMjciIGRhdGEtdWlkPSJsbmsxNyIgaWQ9ImxpbmtfdXNlcnNfcm9sZXMiPjxwYXRoIGNvZGVMaW5lPSIxMjciIGQ9Ik03MDcsODYyLjI4IEM3MDcsODg3LjQ5IDcwNyw4ODguNzYgNzA3LDkxMC45NSIgZmlsbD0ibm9uZSIgaWQ9InVzZXJzLXJvbGVzIiBzdHlsZT0ic3Ryb2tlOiMxODE4MTg7c3Ryb2tlLXdpZHRoOjE7Ii8+PGxpbmUgc3R5bGU9InN0cm9rZTojMTgxODE4O3N0cm9rZS13aWR0aDoxOyIgeDE9IjcwNyIgeDI9IjcwMSIgeTE9Ijg1Mi4yOCIgeTI9Ijg0NC4yOCIvPjxsaW5lIHN0eWxlPSJzdHJva2U6IzE4MTgxODtzdHJva2Utd2lkdGg6MTsiIHgxPSI3MDciIHgyPSI3MTMiIHkxPSI4NTIuMjgiIHkyPSI4NDQuMjgiLz48bGluZSBzdHlsZT0ic3Ryb2tlOiMxODE4MTg7c3Ryb2tlLXdpZHRoOjE7IiB4MT0iNzA3IiB4Mj0iNzA3IiB5MT0iODUyLjI4IiB5Mj0iODQ0LjI4Ii8+PGVsbGlwc2UgY3g9IjcwNyIgY3k9Ijg1OC4yOCIgZmlsbD0ibm9uZSIgcng9IjQiIHJ5PSI0IiBzdHlsZT0ic3Ryb2tlOiMxODE4MTg7c3Ryb2tlLXdpZHRoOjE7Ii8+PGxpbmUgc3R5bGU9InN0cm9rZTojMTgxODE4O3N0cm9rZS13aWR0aDoxOyIgeDE9IjcxMSIgeDI9IjcwMyIgeTE9IjkxNC45NSIgeTI9IjkxNC45NSIvPjxsaW5lIHN0eWxlPSJzdHJva2U6IzE4MTgxODtzdHJva2Utd2lkdGg6MTsiIHgxPSI3MTEiIHgyPSI3MDMiIHkxPSI5MTEuOTUiIHkyPSI5MTEuOTUiLz48bGluZSBzdHlsZT0ic3Ryb2tlOiMxODE4MTg7c3Ryb2tlLXdpZHRoOjE7IiB4MT0iNzA3IiB4Mj0iNzA3IiB5MT0iOTEwLjk1IiB5Mj0iOTE4Ljk1Ii8+PHRleHQgZmlsbD0iIzAwMDAwMCIgZm9udC1mYW1pbHk9InNhbnMtc2VyaWYiIGZvbnQtc2l6ZT0iMTMiIGxlbmd0aEFkanVzdD0ic3BhY2luZyIgdGV4dExlbmd0aD0iNDUuNSIgeD0iNzA4IiB5PSI4ODcuMjg5MSI+cm9sZV9pZDwvdGV4dD48L2c+PCEtLWxpbmsgYWRkcmVzc2VzIHRvIHVzZXJzLS0+PGcgY2xhc3M9ImxpbmsiIGRhdGEtZW50aXR5LTE9ImFkZHJlc3NlcyIgZGF0YS1lbnRpdHktMj0idXNlcnMiIGRhdGEtc291cmNlLWxpbmU9IjEyOCIgZGF0YS11aWQ9ImxuazE4IiBpZD0ibGlua19hZGRyZXNzZXNfdXNlcnMiPjxwYXRoIGNvZGVMaW5lPSIxMjgiIGQ9Ik04ODYuODM4LDYxNy41NjI0IEM4NTMuNDU4LDY0NS4yMTI0IDgzNi4yOTE4LDY1OS40Mjc4IDgwMy40OTE4LDY4Ni41ODc4IiBmaWxsPSJub25lIiBpZD0iYWRkcmVzc2VzLXVzZXJzIiBzdHlsZT0ic3Ryb2tlOiMxODE4MTg7c3Ryb2tlLXdpZHRoOjE7Ii8+PGxpbmUgc3R5bGU9InN0cm9rZTojMTgxODE4O3N0cm9rZS13aWR0aDoxOyIgeDE9Ijg5NC41MzkxIiB4Mj0iODk2Ljg3MjUiIHkxPSI2MTEuMTgzMyIgeTI9IjYwMS40NTkzIi8+PGxpbmUgc3R5bGU9InN0cm9rZTojMTgxODE4O3N0cm9rZS13aWR0aDoxOyIgeDE9Ijg5NC41MzkxIiB4Mj0iOTA0LjUyNzUiIHkxPSI2MTEuMTgzMyIgeTI9IjYxMC43MDA3Ii8+PGxpbmUgc3R5bGU9InN0cm9rZTojMTgxODE4O3N0cm9rZS13aWR0aDoxOyIgeDE9Ijg5NC41MzkxIiB4Mj0iOTAwLjciIHkxPSI2MTEuMTgzMyIgeTI9IjYwNi4wOCIvPjxlbGxpcHNlIGN4PSI4ODkuOTE4NSIgY3k9IjYxNS4wMTA4IiBmaWxsPSJub25lIiByeD0iNCIgcnk9IjQiIHN0eWxlPSJzdHJva2U6IzE4MTgxODtzdHJva2Utd2lkdGg6MTsiLz48bGluZSBzdHlsZT0ic3Ryb2tlOiMxODE4MTg7c3Ryb2tlLXdpZHRoOjE7IiB4MT0iODAyLjk2MiIgeDI9Ijc5Ny44NTk4IiB5MT0iNjkyLjIxOTgiIHkyPSI2ODYuMDU4Ii8+PGxpbmUgc3R5bGU9InN0cm9rZTojMTgxODE4O3N0cm9rZS13aWR0aDoxOyIgeDE9IjgwNS4yNzI3IiB4Mj0iODAwLjE3MDQiIHkxPSI2OTAuMzA2NCIgeTI9IjY4NC4xNDQ3Ii8+PGxpbmUgc3R5bGU9InN0cm9rZTojMTgxODE4O3N0cm9rZS13aWR0aDoxOyIgeDE9IjgwMy40OTE4IiB4Mj0iNzk3LjMzIiB5MT0iNjg2LjU4NzgiIHkyPSI2OTEuNjkiLz48dGV4dCBmaWxsPSIjMDAwMDAwIiBmb250LWZhbWlseT0ic2Fucy1zZXJpZiIgZm9udC1zaXplPSIxMyIgbGVuZ3RoQWRqdXN0PSJzcGFjaW5nIiB0ZXh0TGVuZ3RoPSI0NS41IiB4PSI4NTQiIHk9IjY1OS4yODkxIj51c2VyX2lkPC90ZXh0PjwvZz48IS0tbGluayBlYm9va3MgdG8gY2F0ZWdvcmllcy0tPjxnIGNsYXNzPSJsaW5rIiBkYXRhLWVudGl0eS0xPSJlYm9va3MiIGRhdGEtZW50aXR5LTI9ImNhdGVnb3JpZXMiIGRhdGEtc291cmNlLWxpbmU9IjEyOSIgZGF0YS11aWQ9ImxuazE5IiBpZD0ibGlua19lYm9va3NfY2F0ZWdvcmllcyI+PHBhdGggY29kZUxpbmU9IjEyOSIgZD0iTTI2Niw2MzQuMjcgQzI2Niw2NjkuODkgMjY2LDY4My4yMiAyNjYsNzEyLjciIGZpbGw9Im5vbmUiIGlkPSJlYm9va3MtY2F0ZWdvcmllcyIgc3R5bGU9InN0cm9rZTojMTgxODE4O3N0cm9rZS13aWR0aDoxOyIvPjxsaW5lIHN0eWxlPSJzdHJva2U6IzE4MTgxODtzdHJva2Utd2lkdGg6MTsiIHgxPSIyNjYiIHgyPSIyNjAiIHkxPSI2MjQuMjciIHkyPSI2MTYuMjciLz48bGluZSBzdHlsZT0ic3Ryb2tlOiMxODE4MTg7c3Ryb2tlLXdpZHRoOjE7IiB4MT0iMjY2IiB4Mj0iMjcyIiB5MT0iNjI0LjI3IiB5Mj0iNjE2LjI3Ii8+PGxpbmUgc3R5bGU9InN0cm9rZTojMTgxODE4O3N0cm9rZS13aWR0aDoxOyIgeDE9IjI2NiIgeDI9IjI2NiIgeTE9IjYyNC4yNyIgeTI9IjYxNi4yNyIvPjxlbGxpcHNlIGN4PSIyNjYiIGN5PSI2MzAuMjciIGZpbGw9Im5vbmUiIHJ4PSI0IiByeT0iNCIgc3R5bGU9InN0cm9rZTojMTgxODE4O3N0cm9rZS13aWR0aDoxOyIvPjxsaW5lIHN0eWxlPSJzdHJva2U6IzE4MTgxODtzdHJva2Utd2lkdGg6MTsiIHgxPSIyNzAiIHgyPSIyNjIiIHkxPSI3MTYuNyIgeTI9IjcxNi43Ii8+PGxpbmUgc3R5bGU9InN0cm9rZTojMTgxODE4O3N0cm9rZS13aWR0aDoxOyIgeDE9IjI3MCIgeDI9IjI2MiIgeTE9IjcxMy43IiB5Mj0iNzEzLjciLz48bGluZSBzdHlsZT0ic3Ryb2tlOiMxODE4MTg7c3Ryb2tlLXdpZHRoOjE7IiB4MT0iMjY2IiB4Mj0iMjY2IiB5MT0iNzEyLjciIHkyPSI3MjAuNyIvPjx0ZXh0IGZpbGw9IiMwMDAwMDAiIGZvbnQtZmFtaWx5PSJzYW5zLXNlcmlmIiBmb250LXNpemU9IjEzIiBsZW5ndGhBZGp1c3Q9InNwYWNpbmciIHRleHRMZW5ndGg9IjcxLjUiIHg9IjI2NyIgeT0iNjU5LjI4OTEiPmNhdGVnb3J5X2lkPC90ZXh0PjwvZz48IS0tbGluayBlYm9va3MgdG8gdXNlcnMtLT48ZyBjbGFzcz0ibGluayIgZGF0YS1lbnRpdHktMT0iZWJvb2tzIiBkYXRhLWVudGl0eS0yPSJ1c2VycyIgZGF0YS1zb3VyY2UtbGluZT0iMTMwIiBkYXRhLXVpZD0ibG5rMjAiIGlkPSJsaW5rX2Vib29rc191c2VycyI+PHBhdGggY29kZUxpbmU9IjEzMCIgZD0iTTM1My4wNTc2LDYyOC43NTgxIEMzNjkuNzU3Niw2NDUuMzI4MSAzNzUuNTYsNjQ4LjU5IDM5NSw2NjEgQzQ2My4zMiw3MDQuNiA1NDMuODcwNiw3MzAuMzUzMSA2MDkuMTAwNiw3NDYuMzYzMSIgZmlsbD0ibm9uZSIgaWQ9ImVib29rcy11c2VycyIgc3R5bGU9InN0cm9rZTojMTgxODE4O3N0cm9rZS13aWR0aDoxOyIvPjxsaW5lIHN0eWxlPSJzdHJva2U6IzE4MTgxODtzdHJva2Utd2lkdGg6MTsiIHgxPSIzNDUuOTU4OSIgeDI9IjMzNi4wNTQiIHkxPSI2MjEuNzE0NyIgeTI9IjYyMC4zMzkyIi8+PGxpbmUgc3R5bGU9InN0cm9rZTojMTgxODE4O3N0cm9rZS13aWR0aDoxOyIgeDE9IjM0NS45NTg5IiB4Mj0iMzQ0LjUwNiIgeTE9IjYyMS43MTQ3IiB5Mj0iNjExLjgyMDgiLz48bGluZSBzdHlsZT0ic3Ryb2tlOiMxODE4MTg7c3Ryb2tlLXdpZHRoOjE7IiB4MT0iMzQ1Ljk1ODkiIHgyPSIzNDAuMjgiIHkxPSI2MjEuNzE0NyIgeTI9IjYxNi4wOCIvPjxlbGxpcHNlIGN4PSIzNTAuMjE4MSIgY3k9IjYyNS45NDA3IiBmaWxsPSJub25lIiByeD0iNCIgcnk9IjQiIHN0eWxlPSJzdHJva2U6IzE4MTgxODtzdHJva2Utd2lkdGg6MTsiLz48bGluZSBzdHlsZT0ic3Ryb2tlOiMxODE4MTg7c3Ryb2tlLXdpZHRoOjE7IiB4MT0iNjEzLjkzODgiIHgyPSI2MTIuMDMxOCIgeTE9Ijc0My40MzE4IiB5Mj0iNzUxLjIwMTIiLz48bGluZSBzdHlsZT0ic3Ryb2tlOiMxODE4MTg7c3Ryb2tlLXdpZHRoOjE7IiB4MT0iNjExLjAyNTIiIHgyPSI2MDkuMTE4MyIgeTE9Ijc0Mi43MTY3IiB5Mj0iNzUwLjQ4NjIiLz48bGluZSBzdHlsZT0ic3Ryb2tlOiMxODE4MTg7c3Ryb2tlLXdpZHRoOjE7IiB4MT0iNjA5LjEwMDYiIHgyPSI2MTYuODciIHkxPSI3NDYuMzYzMSIgeTI9Ijc0OC4yNyIvPjx0ZXh0IGZpbGw9IiMwMDAwMDAiIGZvbnQtZmFtaWx5PSJzYW5zLXNlcmlmIiBmb250LXNpemU9IjEzIiBsZW5ndGhBZGp1c3Q9InNwYWNpbmciIHRleHRMZW5ndGg9IjY1IiB4PSIzOTYiIHk9IjY1OS4yODkxIj5jcmVhdG9yX2lkPC90ZXh0PjwvZz48IS0tbGluayBlYm9va3NfaW1hZ2VzIHRvIGVib29rcy0tPjxnIGNsYXNzPSJsaW5rIiBkYXRhLWVudGl0eS0xPSJlYm9va3NfaW1hZ2VzIiBkYXRhLWVudGl0eS0yPSJlYm9va3MiIGRhdGEtc291cmNlLWxpbmU9IjEzMSIgZGF0YS11aWQ9ImxuazIxIiBpZD0ibGlua19lYm9va3NfaW1hZ2VzX2Vib29rcyI+PHBhdGggY29kZUxpbmU9IjEzMSIgZD0iTTEzOS4yODA1LDM1MC4yMjIzIEMxNTMuODUwNSwzNzAuODkyMyAxNjEuMDEsMzgwLjg5IDE3Nyw0MDMgQzE4NC4wMSw0MTIuNjkgMTg2LjY1MDIsNDE2LjM0NzkgMTk0LjAxMDIsNDI2LjM4NzkiIGZpbGw9Im5vbmUiIGlkPSJlYm9va3NfaW1hZ2VzLWVib29rcyIgc3R5bGU9InN0cm9rZTojMTgxODE4O3N0cm9rZS13aWR0aDoxOyIvPjxsaW5lIHN0eWxlPSJzdHJva2U6IzE4MTgxODtzdHJva2Utd2lkdGg6MTsiIHgxPSIxMzMuNTE5MSIgeDI9IjEyNC4wMDU5IiB5MT0iMzQyLjA0ODgiIHkyPSIzMzguOTY2OCIvPjxsaW5lIHN0eWxlPSJzdHJva2U6IzE4MTgxODtzdHJva2Utd2lkdGg6MTsiIHgxPSIxMzMuNTE5MSIgeDI9IjEzMy44MTQxIiB5MT0iMzQyLjA0ODgiIHkyPSIzMzIuMDUzMiIvPjxsaW5lIHN0eWxlPSJzdHJva2U6IzE4MTgxODtzdHJva2Utd2lkdGg6MTsiIHgxPSIxMzMuNTE5MSIgeDI9IjEyOC45MSIgeTE9IjM0Mi4wNDg4IiB5Mj0iMzM1LjUxIi8+PGVsbGlwc2UgY3g9IjEzNi45NzYiIGN5PSIzNDYuOTUyOSIgZmlsbD0ibm9uZSIgcng9IjQiIHJ5PSI0IiBzdHlsZT0ic3Ryb2tlOiMxODE4MTg7c3Ryb2tlLXdpZHRoOjE7Ii8+PGxpbmUgc3R5bGU9InN0cm9rZTojMTgxODE4O3N0cm9rZS13aWR0aDoxOyIgeDE9IjE5OS42MDExIiB4Mj0iMTkzLjE0OTEiIHkxPSI0MjcuMjQ5MSIgeTI9IjQzMS45Nzg5Ii8+PGxpbmUgc3R5bGU9InN0cm9rZTojMTgxODE4O3N0cm9rZS13aWR0aDoxOyIgeDE9IjE5Ny44Mjc1IiB4Mj0iMTkxLjM3NTQiIHkxPSI0MjQuODI5NiIgeTI9IjQyOS41NTkzIi8+PGxpbmUgc3R5bGU9InN0cm9rZTojMTgxODE4O3N0cm9rZS13aWR0aDoxOyIgeDE9IjE5NC4wMTAyIiB4Mj0iMTk4Ljc0IiB5MT0iNDI2LjM4NzkiIHkyPSI0MzIuODQiLz48dGV4dCBmaWxsPSIjMDAwMDAwIiBmb250LWZhbWlseT0ic2Fucy1zZXJpZiIgZm9udC1zaXplPSIxMyIgbGVuZ3RoQWRqdXN0PSJzcGFjaW5nIiB0ZXh0TGVuZ3RoPSI1MiIgeD0iMTc4IiB5PSI0MDEuMjg5MSI+ZWJvb2tfaWQ8L3RleHQ+PC9nPjwhLS1saW5rIGNhcnRfaXRlbXMgdG8gdXNlcnMtLT48ZyBjbGFzcz0ibGluayIgZGF0YS1lbnRpdHktMT0iY2FydF9pdGVtcyIgZGF0YS1lbnRpdHktMj0idXNlcnMiIGRhdGEtc291cmNlLWxpbmU9IjEzMiIgZGF0YS11aWQ9ImxuazIyIiBpZD0ibGlua19jYXJ0X2l0ZW1zX3VzZXJzIj48cGF0aCBjb2RlTGluZT0iMTMyIiBkPSJNNDUzLjE4LDM2OC40NiBDNDU3Ljc1LDQzNi44NiA0NzEuMjQsNTMxLjY5IDUxOCw2MTYgQzU0MC44OSw2NTcuMjcgNTczLjU1OTMsNjg2LjgxIDYxMC4zODkzLDcxMi4wMyIgZmlsbD0ibm9uZSIgaWQ9ImNhcnRfaXRlbXMtdXNlcnMiIHN0eWxlPSJzdHJva2U6IzE4MTgxODtzdHJva2Utd2lkdGg6MTsiLz48bGluZSBzdHlsZT0ic3Ryb2tlOiMxODE4MTg7c3Ryb2tlLXdpZHRoOjE7IiB4MT0iNDUyLjUxMzMiIHgyPSI0NDUuOTkzMyIgeTE9IjM1OC40ODIyIiB5Mj0iMzUwLjkiLz48bGluZSBzdHlsZT0ic3Ryb2tlOiMxODE4MTg7c3Ryb2tlLXdpZHRoOjE7IiB4MT0iNDUyLjUxMzMiIHgyPSI0NTcuOTY2NyIgeTE9IjM1OC40ODIyIiB5Mj0iMzUwLjEiLz48bGluZSBzdHlsZT0ic3Ryb2tlOiMxODE4MTg7c3Ryb2tlLXdpZHRoOjE7IiB4MT0iNDUyLjUxMzMiIHgyPSI0NTEuOTgiIHkxPSIzNTguNDgyMiIgeTI9IjM1MC41Ii8+PGVsbGlwc2UgY3g9IjQ1Mi45MTMzIiBjeT0iMzY0LjQ2ODkiIGZpbGw9Im5vbmUiIHJ4PSI0IiByeT0iNCIgc3R5bGU9InN0cm9rZTojMTgxODE4O3N0cm9rZS13aWR0aDoxOyIvPjxsaW5lIHN0eWxlPSJzdHJva2U6IzE4MTgxODtzdHJva2Utd2lkdGg6MTsiIHgxPSI2MTUuOTQ5NiIgeDI9IjYxMS40Mjk2IiB5MT0iNzEwLjk4OTYiIHkyPSI3MTcuNTkwNCIvPjxsaW5lIHN0eWxlPSJzdHJva2U6IzE4MTgxODtzdHJva2Utd2lkdGg6MTsiIHgxPSI2MTMuNDc0MyIgeDI9IjYwOC45NTQ0IiB5MT0iNzA5LjI5NDYiIHkyPSI3MTUuODk1NCIvPjxsaW5lIHN0eWxlPSJzdHJva2U6IzE4MTgxODtzdHJva2Utd2lkdGg6MTsiIHgxPSI2MTAuMzg5MyIgeDI9IjYxNi45OSIgeTE9IjcxMi4wMyIgeTI9IjcxNi41NSIvPjx0ZXh0IGZpbGw9IiMwMDAwMDAiIGZvbnQtZmFtaWx5PSJzYW5zLXNlcmlmIiBmb250LXNpemU9IjEzIiBsZW5ndGhBZGp1c3Q9InNwYWNpbmciIHRleHRMZW5ndGg9IjQ1LjUiIHg9IjUxOSIgeT0iNTMwLjI4OTEiPnVzZXJfaWQ8L3RleHQ+PC9nPjwhLS1saW5rIGNhcnRfaXRlbXMgdG8gZWJvb2tzLS0+PGcgY2xhc3M9ImxpbmsiIGRhdGEtZW50aXR5LTE9ImNhcnRfaXRlbXMiIGRhdGEtZW50aXR5LTI9ImVib29rcyIgZGF0YS1zb3VyY2UtbGluZT0iMTMzIiBkYXRhLXVpZD0ibG5rMjMiIGlkPSJsaW5rX2NhcnRfaXRlbXNfZWJvb2tzIj48cGF0aCBjb2RlTGluZT0iMTMzIiBkPSJNMzkwLjk5OTIsMzY0Ljg3OCBDMzcxLjI5OTIsMzg5Ljg3OCAzNjQuMTUyLDM5OC45NDY4IDM0Mi41MDIsNDI2LjQxNjgiIGZpbGw9Im5vbmUiIGlkPSJjYXJ0X2l0ZW1zLWVib29rcyIgc3R5bGU9InN0cm9rZTojMTgxODE4O3N0cm9rZS13aWR0aDoxOyIvPjxsaW5lIHN0eWxlPSJzdHJva2U6IzE4MTgxODtzdHJva2Utd2lkdGg6MTsiIHgxPSIzOTcuMTg4NiIgeDI9IjM5Ny40MjczIiB5MT0iMzU3LjAyMzYiIHkyPSIzNDcuMDI2NCIvPjxsaW5lIHN0eWxlPSJzdHJva2U6IzE4MTgxODtzdHJva2Utd2lkdGg6MTsiIHgxPSIzOTcuMTg4NiIgeDI9IjQwNi44NTI3IiB5MT0iMzU3LjAyMzYiIHkyPSIzNTQuNDUzNiIvPjxsaW5lIHN0eWxlPSJzdHJva2U6IzE4MTgxODtzdHJva2Utd2lkdGg6MTsiIHgxPSIzOTcuMTg4NiIgeDI9IjQwMi4xNCIgeTE9IjM1Ny4wMjM2IiB5Mj0iMzUwLjc0Ii8+PGVsbGlwc2UgY3g9IjM5My40NzUiIGN5PSIzNjEuNzM2MiIgZmlsbD0ibm9uZSIgcng9IjQiIHJ5PSI0IiBzdHlsZT0ic3Ryb2tlOiMxODE4MTg7c3Ryb2tlLXdpZHRoOjE7Ii8+PGxpbmUgc3R5bGU9InN0cm9rZTojMTgxODE4O3N0cm9rZS13aWR0aDoxOyIgeDE9IjM0My4xNjc2IiB4Mj0iMzM2Ljg4NDQiIHkxPSI0MzIuMDM0NCIgeTI9IjQyNy4wODI0Ii8+PGxpbmUgc3R5bGU9InN0cm9rZTojMTgxODE4O3N0cm9rZS13aWR0aDoxOyIgeDE9IjM0NS4wMjQ1IiB4Mj0iMzM4Ljc0MTQiIHkxPSI0MjkuNjc4MiIgeTI9IjQyNC43MjYzIi8+PGxpbmUgc3R5bGU9InN0cm9rZTojMTgxODE4O3N0cm9rZS13aWR0aDoxOyIgeDE9IjM0Mi41MDIiIHgyPSIzMzcuNTUiIHkxPSI0MjYuNDE2OCIgeTI9IjQzMi43Ii8+PHRleHQgZmlsbD0iIzAwMDAwMCIgZm9udC1mYW1pbHk9InNhbnMtc2VyaWYiIGZvbnQtc2l6ZT0iMTMiIGxlbmd0aEFkanVzdD0ic3BhY2luZyIgdGV4dExlbmd0aD0iNTIiIHg9IjM3MSIgeT0iNDAxLjI4OTEiPmVib29rX2lkPC90ZXh0PjwvZz48IS0tbGluayBvcmRlcnMgdG8gdXNlcnMtLT48ZyBjbGFzcz0ibGluayIgZGF0YS1lbnRpdHktMT0ib3JkZXJzIiBkYXRhLWVudGl0eS0yPSJ1c2VycyIgZGF0YS1zb3VyY2UtbGluZT0iMTM0IiBkYXRhLXVpZD0ibG5rMjQiIGlkPSJsaW5rX29yZGVyc191c2VycyI+PHBhdGggY29kZUxpbmU9IjEzNCIgZD0iTTg2MS4wMTUsMzU4LjA0OSBDODY2LjY1NSwzNjEuMDI5IDg1Ni40LDM1NS40NCA4NjIsMzU4IEM5NjcuNSw0MDYuMjMgMTA0Mi43NSwzMzkuOTMgMTExMiw0MzMgQzExNjAuNTUsNDk4LjI1IDExNTguNDMsNTQ5LjIyIDExMTIsNjE2IEMxMDQxLjM1LDcxNy42MiA5MDEuNDgwOCw3NDkuODgzNyA4MDUuMzEwOCw3NjAuNjAzNyIgZmlsbD0ibm9uZSIgaWQ9Im9yZGVycy11c2VycyIgc3R5bGU9InN0cm9rZTojMTgxODE4O3N0cm9rZS13aWR0aDoxOyIvPjxsaW5lIHN0eWxlPSJzdHJva2U6IzE4MTgxODtzdHJva2Utd2lkdGg6MTsiIHgxPSI4NTIuMTczNCIgeDI9Ijg0Mi4yOTciIHkxPSIzNTMuMzc3MyIgeTI9IjM1NC45NDUiLz48bGluZSBzdHlsZT0ic3Ryb2tlOiMxODE4MTg7c3Ryb2tlLXdpZHRoOjE7IiB4MT0iODUyLjE3MzQiIHgyPSI4NDcuOTAzIiB5MT0iMzUzLjM3NzMiIHkyPSIzNDQuMzM1Ii8+PGxpbmUgc3R5bGU9InN0cm9rZTojMTgxODE4O3N0cm9rZS13aWR0aDoxOyIgeDE9Ijg1Mi4xNzM0IiB4Mj0iODQ1LjEiIHkxPSIzNTMuMzc3MyIgeTI9IjM0OS42NCIvPjxlbGxpcHNlIGN4PSI4NTcuNDc4NCIgY3k9IjM1Ni4xODAzIiBmaWxsPSJub25lIiByeD0iNCIgcnk9IjQiIHN0eWxlPSJzdHJva2U6IzE4MTgxODtzdHJva2Utd2lkdGg6MTsiLz48bGluZSBzdHlsZT0ic3Ryb2tlOiMxODE4MTg7c3Ryb2tlLXdpZHRoOjE7IiB4MT0iODAxLjc3ODUiIHgyPSI4MDAuODkyMiIgeTE9Ijc2NS4wMjIyIiB5Mj0iNzU3LjA3MTUiLz48bGluZSBzdHlsZT0ic3Ryb2tlOiMxODE4MTg7c3Ryb2tlLXdpZHRoOjE7IiB4MT0iODA0Ljc2IiB4Mj0iODAzLjg3MzgiIHkxPSI3NjQuNjg5OSIgeTI9Ijc1Ni43MzkxIi8+PGxpbmUgc3R5bGU9InN0cm9rZTojMTgxODE4O3N0cm9rZS13aWR0aDoxOyIgeDE9IjgwNS4zMTA4IiB4Mj0iNzk3LjM2IiB5MT0iNzYwLjYwMzciIHkyPSI3NjEuNDkiLz48dGV4dCBmaWxsPSIjMDAwMDAwIiBmb250LWZhbWlseT0ic2Fucy1zZXJpZiIgZm9udC1zaXplPSIxMyIgbGVuZ3RoQWRqdXN0PSJzcGFjaW5nIiB0ZXh0TGVuZ3RoPSI0NS41IiB4PSIxMTQ5IiB5PSI1MzAuMjg5MSI+dXNlcl9pZDwvdGV4dD48L2c+PCEtLWxpbmsgb3JkZXJzIHRvIGFkZHJlc3Nlcy0tPjxnIGNsYXNzPSJsaW5rIiBkYXRhLWVudGl0eS0xPSJvcmRlcnMiIGRhdGEtZW50aXR5LTI9ImFkZHJlc3NlcyIgZGF0YS1zb3VyY2UtbGluZT0iMTM1IiBkYXRhLXVpZD0ibG5rMjUiIGlkPSJsaW5rX29yZGVyc19hZGRyZXNzZXMiPjxwYXRoIGNvZGVMaW5lPSIxMzUiIGQ9Ik04MzguOTIsMzcwLjY0MDcgQzg2NS42OCwzOTYuMzUwNyA4NzcuNjYxMSw0MDcuODY3NSA5MDUuNjkxMSw0MzQuNzk3NSIgZmlsbD0ibm9uZSIgaWQ9Im9yZGVycy1hZGRyZXNzZXMiIHN0eWxlPSJzdHJva2U6IzE4MTgxODtzdHJva2Utd2lkdGg6MTsiLz48bGluZSBzdHlsZT0ic3Ryb2tlOiMxODE4MTg7c3Ryb2tlLXdpZHRoOjE7IiB4MT0iODMxLjcwODkiIHgyPSI4MjEuNzgzMSIgeTE9IjM2My43MTI1IiB5Mj0iMzYyLjQ5NjciLz48bGluZSBzdHlsZT0ic3Ryb2tlOiMxODE4MTg7c3Ryb2tlLXdpZHRoOjE7IiB4MT0iODMxLjcwODkiIHgyPSI4MzAuMDk2OSIgeTE9IjM2My43MTI1IiB5Mj0iMzUzLjg0MzMiLz48bGluZSBzdHlsZT0ic3Ryb2tlOiMxODE4MTg7c3Ryb2tlLXdpZHRoOjE7IiB4MT0iODMxLjcwODkiIHgyPSI4MjUuOTQiIHkxPSIzNjMuNzEyNSIgeTI9IjM1OC4xNyIvPjxlbGxpcHNlIGN4PSI4MzYuMDM1NiIgY3k9IjM2Ny44Njk0IiBmaWxsPSJub25lIiByeD0iNCIgcnk9IjQiIHN0eWxlPSJzdHJva2U6IzE4MTgxODtzdHJva2Utd2lkdGg6MTsiLz48bGluZSBzdHlsZT0ic3Ryb2tlOiMxODE4MTg7c3Ryb2tlLXdpZHRoOjE7IiB4MT0iOTExLjM0NjgiIHgyPSI5MDUuODA0MyIgeTE9IjQzNC42ODQzIiB5Mj0iNDQwLjQ1MzIiLz48bGluZSBzdHlsZT0ic3Ryb2tlOiMxODE4MTg7c3Ryb2tlLXdpZHRoOjE7IiB4MT0iOTA5LjE4MzUiIHgyPSI5MDMuNjQwOSIgeTE9IjQzMi42MDU4IiB5Mj0iNDM4LjM3NDciLz48bGluZSBzdHlsZT0ic3Ryb2tlOiMxODE4MTg7c3Ryb2tlLXdpZHRoOjE7IiB4MT0iOTA1LjY5MTEiIHgyPSI5MTEuNDYiIHkxPSI0MzQuNzk3NSIgeTI9IjQ0MC4zNCIvPjx0ZXh0IGZpbGw9IiMwMDAwMDAiIGZvbnQtZmFtaWx5PSJzYW5zLXNlcmlmIiBmb250LXNpemU9IjEzIiBsZW5ndGhBZGp1c3Q9InNwYWNpbmciIHRleHRMZW5ndGg9IjY1IiB4PSI4NzEiIHk9IjQwMS4yODkxIj5hZGRyZXNzX2lkPC90ZXh0PjwvZz48IS0tbGluayBvcmRlcnMgdG8gb3JkZXJzX3N0YXR1cy0tPjxnIGNsYXNzPSJsaW5rIiBkYXRhLWVudGl0eS0xPSJvcmRlcnMiIGRhdGEtZW50aXR5LTI9Im9yZGVyc19zdGF0dXMiIGRhdGEtc291cmNlLWxpbmU9IjEzNiIgZGF0YS11aWQ9ImxuazI2IiBpZD0ibGlua19vcmRlcnNfb3JkZXJzX3N0YXR1cyI+PHBhdGggY29kZUxpbmU9IjEzNiIgZD0iTTc1NSwzNzYuMTcgQzc1NSw0MTQuNjYgNzU1LDQzNS43NCA3NTUsNDY5LjgiIGZpbGw9Im5vbmUiIGlkPSJvcmRlcnMtb3JkZXJzX3N0YXR1cyIgc3R5bGU9InN0cm9rZTojMTgxODE4O3N0cm9rZS13aWR0aDoxOyIvPjxsaW5lIHN0eWxlPSJzdHJva2U6IzE4MTgxODtzdHJva2Utd2lkdGg6MTsiIHgxPSI3NTUiIHgyPSI3NDkiIHkxPSIzNjYuMTciIHkyPSIzNTguMTciLz48bGluZSBzdHlsZT0ic3Ryb2tlOiMxODE4MTg7c3Ryb2tlLXdpZHRoOjE7IiB4MT0iNzU1IiB4Mj0iNzYxIiB5MT0iMzY2LjE3IiB5Mj0iMzU4LjE3Ii8+PGxpbmUgc3R5bGU9InN0cm9rZTojMTgxODE4O3N0cm9rZS13aWR0aDoxOyIgeDE9Ijc1NSIgeDI9Ijc1NSIgeTE9IjM2Ni4xNyIgeTI9IjM1OC4xNyIvPjxlbGxpcHNlIGN4PSI3NTUiIGN5PSIzNzIuMTciIGZpbGw9Im5vbmUiIHJ4PSI0IiByeT0iNCIgc3R5bGU9InN0cm9rZTojMTgxODE4O3N0cm9rZS13aWR0aDoxOyIvPjxsaW5lIHN0eWxlPSJzdHJva2U6IzE4MTgxODtzdHJva2Utd2lkdGg6MTsiIHgxPSI3NTkiIHgyPSI3NTEiIHkxPSI0NzMuOCIgeTI9IjQ3My44Ii8+PGxpbmUgc3R5bGU9InN0cm9rZTojMTgxODE4O3N0cm9rZS13aWR0aDoxOyIgeDE9Ijc1OSIgeDI9Ijc1MSIgeTE9IjQ3MC44IiB5Mj0iNDcwLjgiLz48bGluZSBzdHlsZT0ic3Ryb2tlOiMxODE4MTg7c3Ryb2tlLXdpZHRoOjE7IiB4MT0iNzU1IiB4Mj0iNzU1IiB5MT0iNDY5LjgiIHkyPSI0NzcuOCIvPjx0ZXh0IGZpbGw9IiMwMDAwMDAiIGZvbnQtZmFtaWx5PSJzYW5zLXNlcmlmIiBmb250LXNpemU9IjEzIiBsZW5ndGhBZGp1c3Q9InNwYWNpbmciIHRleHRMZW5ndGg9IjM5IiB4PSI3NTYiIHk9IjQwMS4yODkxIj5zdGF0dXM8L3RleHQ+PC9nPjwhLS1saW5rIG9yZGVyX2l0ZW1zIHRvIG9yZGVycy0tPjxnIGNsYXNzPSJsaW5rIiBkYXRhLWVudGl0eS0xPSJvcmRlcl9pdGVtcyIgZGF0YS1lbnRpdHktMj0ib3JkZXJzIiBkYXRhLXNvdXJjZS1saW5lPSIxMzciIGRhdGEtdWlkPSJsbmsyNyIgaWQ9Imxpbmtfb3JkZXJfaXRlbXNfb3JkZXJzIj48cGF0aCBjb2RlTGluZT0iMTM3IiBkPSJNNDE1LjAwNTYsMTMzLjM5MDcgQzQ5NS43MTU2LDE3MC4wOTA3IDU4MS4yODc3LDIwOS4wMDgyIDY1Ny40NTc3LDI0My42NDgyIiBmaWxsPSJub25lIiBpZD0ib3JkZXJfaXRlbXMtb3JkZXJzIiBzdHlsZT0ic3Ryb2tlOiMxODE4MTg7c3Ryb2tlLXdpZHRoOjE7Ii8+PGxpbmUgc3R5bGU9InN0cm9rZTojMTgxODE4O3N0cm9rZS13aWR0aDoxOyIgeDE9IjQwNS45MDI1IiB4Mj0iMzk2LjEzNjQiIHkxPSIxMjkuMjUxNCIgeTI9IjEzMS40MDE5Ii8+PGxpbmUgc3R5bGU9InN0cm9rZTojMTgxODE4O3N0cm9rZS13aWR0aDoxOyIgeDE9IjQwNS45MDI1IiB4Mj0iNDAxLjEwMzYiIHkxPSIxMjkuMjUxNCIgeTI9IjEyMC40NzgxIi8+PGxpbmUgc3R5bGU9InN0cm9rZTojMTgxODE4O3N0cm9rZS13aWR0aDoxOyIgeDE9IjQwNS45MDI1IiB4Mj0iMzk4LjYyIiB5MT0iMTI5LjI1MTQiIHkyPSIxMjUuOTQiLz48ZWxsaXBzZSBjeD0iNDExLjM2NDMiIGN5PSIxMzEuNzM1IiBmaWxsPSJub25lIiByeD0iNCIgcnk9IjQiIHN0eWxlPSJzdHJva2U6IzE4MTgxODtzdHJva2Utd2lkdGg6MTsiLz48bGluZSBzdHlsZT0ic3Ryb2tlOiMxODE4MTg7c3Ryb2tlLXdpZHRoOjE7IiB4MT0iNjYyLjc1NDciIHgyPSI2NTkuNDQyOSIgeTE9IjI0MS42NjI5IiB5Mj0iMjQ4Ljk0NTMiLz48bGluZSBzdHlsZT0ic3Ryb2tlOiMxODE4MTg7c3Ryb2tlLXdpZHRoOjE7IiB4MT0iNjYwLjAyMzkiIHgyPSI2NTYuNzEyMSIgeTE9IjI0MC40MjEiIHkyPSIyNDcuNzAzMyIvPjxsaW5lIHN0eWxlPSJzdHJva2U6IzE4MTgxODtzdHJva2Utd2lkdGg6MTsiIHgxPSI2NTcuNDU3NyIgeDI9IjY2NC43NCIgeTE9IjI0My42NDgyIiB5Mj0iMjQ2Ljk2Ii8+PHRleHQgZmlsbD0iIzAwMDAwMCIgZm9udC1mYW1pbHk9InNhbnMtc2VyaWYiIGZvbnQtc2l6ZT0iMTMiIGxlbmd0aEFkanVzdD0ic3BhY2luZyIgdGV4dExlbmd0aD0iNTIiIHg9IjUzOCIgeT0iMTg4LjI4OTEiPm9yZGVyX2lkPC90ZXh0PjwvZz48IS0tbGluayBvcmRlcl9pdGVtcyB0byBlYm9va3MtLT48ZyBjbGFzcz0ibGluayIgZGF0YS1lbnRpdHktMT0ib3JkZXJfaXRlbXMiIGRhdGEtZW50aXR5LTI9ImVib29rcyIgZGF0YS1zb3VyY2UtbGluZT0iMTM4IiBkYXRhLXVpZD0ibG5rMjgiIGlkPSJsaW5rX29yZGVyX2l0ZW1zX2Vib29rcyI+PHBhdGggY29kZUxpbmU9IjEzOCIgZD0iTTI4MC4yNjM2LDE1NS42MjY3IEMyNzcuMDQzNiwxODAuOTk2NyAyNzUuOTYsMTkyLjk0IDI3NCwyMjAgQzI2OC44MywyOTEuMzcgMjY2Ljk4MDEsMzY0LjM5MDUgMjY2LjMwMDEsNDI0Ljc1MDUiIGZpbGw9Im5vbmUiIGlkPSJvcmRlcl9pdGVtcy1lYm9va3MiIHN0eWxlPSJzdHJva2U6IzE4MTgxODtzdHJva2Utd2lkdGg6MTsiLz48bGluZSBzdHlsZT0ic3Ryb2tlOiMxODE4MTg7c3Ryb2tlLXdpZHRoOjE7IiB4MT0iMjgxLjUyMjciIHgyPSIyNzYuNTc3OCIgeTE9IjE0NS43MDYzIiB5Mj0iMTM3LjAxNDUiLz48bGluZSBzdHlsZT0ic3Ryb2tlOiMxODE4MTg7c3Ryb2tlLXdpZHRoOjE7IiB4MT0iMjgxLjUyMjciIHgyPSIyODguNDgyMiIgeTE9IjE0NS43MDYzIiB5Mj0iMTM4LjUyNTUiLz48bGluZSBzdHlsZT0ic3Ryb2tlOiMxODE4MTg7c3Ryb2tlLXdpZHRoOjE7IiB4MT0iMjgxLjUyMjciIHgyPSIyODIuNTMiIHkxPSIxNDUuNzA2MyIgeTI9IjEzNy43NyIvPjxlbGxpcHNlIGN4PSIyODAuNzY3MiIgY3k9IjE1MS42NTg2IiBmaWxsPSJub25lIiByeD0iNCIgcnk9IjQiIHN0eWxlPSJzdHJva2U6IzE4MTgxODtzdHJva2Utd2lkdGg6MTsiLz48bGluZSBzdHlsZT0ic3Ryb2tlOiMxODE4MTg7c3Ryb2tlLXdpZHRoOjE7IiB4MT0iMjcwLjI1NDgiIHgyPSIyNjIuMjU1MyIgeTE9IjQyOC43OTUzIiB5Mj0iNDI4LjcwNTIiLz48bGluZSBzdHlsZT0ic3Ryb2tlOiMxODE4MTg7c3Ryb2tlLXdpZHRoOjE7IiB4MT0iMjcwLjI4ODYiIHgyPSIyNjIuMjg5MSIgeTE9IjQyNS43OTU1IiB5Mj0iNDI1LjcwNTQiLz48bGluZSBzdHlsZT0ic3Ryb2tlOiMxODE4MTg7c3Ryb2tlLXdpZHRoOjE7IiB4MT0iMjY2LjMwMDEiIHgyPSIyNjYuMjEiIHkxPSI0MjQuNzUwNSIgeTI9IjQzMi43NSIvPjx0ZXh0IGZpbGw9IiMwMDAwMDAiIGZvbnQtZmFtaWx5PSJzYW5zLXNlcmlmIiBmb250LXNpemU9IjEzIiBsZW5ndGhBZGp1c3Q9InNwYWNpbmciIHRleHRMZW5ndGg9IjUyIiB4PSIyNzUiIHk9IjI5NC43ODkxIj5lYm9va19pZDwvdGV4dD48L2c+PCEtLWxpbmsgcGF5bWVudHMgdG8gb3JkZXJzLS0+PGcgY2xhc3M9ImxpbmsiIGRhdGEtZW50aXR5LTE9InBheW1lbnRzIiBkYXRhLWVudGl0eS0yPSJvcmRlcnMiIGRhdGEtc291cmNlLWxpbmU9IjEzOSIgZGF0YS11aWQ9ImxuazI5IiBpZD0ibGlua19wYXltZW50c19vcmRlcnMiPjxwYXRoIGNvZGVMaW5lPSIxMzkiIGQ9Ik04NzAuODg4NSwxNTguNjE2MSBDODQ5LjUyODUsMTgyLjQ1NjEgODQyLjkxNzIsMTg5Ljg1MDYgODIxLjU1NzIsMjEzLjcwMDYiIGZpbGw9Im5vbmUiIGlkPSJwYXltZW50cy1vcmRlcnMiIHN0eWxlPSJzdHJva2U6IzE4MTgxODtzdHJva2Utd2lkdGg6MTsiLz48bGluZSBzdHlsZT0ic3Ryb2tlOiMxODE4MTg7c3Ryb2tlLXdpZHRoOjE7IiB4MT0iODc3LjU2MTYiIHgyPSI4NzguNDMxMyIgeTE9IjE1MS4xNjgzIiB5Mj0iMTQxLjIwNjIiLz48bGluZSBzdHlsZT0ic3Ryb2tlOiMxODE4MTg7c3Ryb2tlLXdpZHRoOjE7IiB4MT0iODc3LjU2MTYiIHgyPSI4ODcuMzY4NyIgeTE9IjE1MS4xNjgzIiB5Mj0iMTQ5LjIxMzgiLz48bGluZSBzdHlsZT0ic3Ryb2tlOiMxODE4MTg7c3Ryb2tlLXdpZHRoOjE7IiB4MT0iODc3LjU2MTYiIHgyPSI4ODIuOSIgeTE9IjE1MS4xNjgzIiB5Mj0iMTQ1LjIxIi8+PGVsbGlwc2UgY3g9Ijg3My41NTc3IiBjeT0iMTU1LjYzNyIgZmlsbD0ibm9uZSIgcng9IjQiIHJ5PSI0IiBzdHlsZT0ic3Ryb2tlOiMxODE4MTg7c3Ryb2tlLXdpZHRoOjE7Ii8+PGxpbmUgc3R5bGU9InN0cm9rZTojMTgxODE4O3N0cm9rZS13aWR0aDoxOyIgeDE9IjgyMS44NjgzIiB4Mj0iODE1LjkwODkiIHkxPSIyMTkuMzQ4OSIgeTI9IjIxNC4wMTE3Ii8+PGxpbmUgc3R5bGU9InN0cm9rZTojMTgxODE4O3N0cm9rZS13aWR0aDoxOyIgeDE9IjgyMy44Njk3IiB4Mj0iODE3LjkxMDQiIHkxPSIyMTcuMTE0MSIgeTI9IjIxMS43NzY5Ii8+PGxpbmUgc3R5bGU9InN0cm9rZTojMTgxODE4O3N0cm9rZS13aWR0aDoxOyIgeDE9IjgyMS41NTcyIiB4Mj0iODE2LjIyIiB5MT0iMjEzLjcwMDYiIHkyPSIyMTkuNjYiLz48dGV4dCBmaWxsPSIjMDAwMDAwIiBmb250LWZhbWlseT0ic2Fucy1zZXJpZiIgZm9udC1zaXplPSIxMyIgbGVuZ3RoQWRqdXN0PSJzcGFjaW5nIiB0ZXh0TGVuZ3RoPSI1MiIgeD0iODU3IiB5PSIxODguMjg5MSI+b3JkZXJfaWQ8L3RleHQ+PC9nPjwhLS1saW5rIHBheW1lbnRzIHRvIHBheW1lbnRzX3N0YXR1cy0tPjxnIGNsYXNzPSJsaW5rIiBkYXRhLWVudGl0eS0xPSJwYXltZW50cyIgZGF0YS1lbnRpdHktMj0icGF5bWVudHNfc3RhdHVzIiBkYXRhLXNvdXJjZS1saW5lPSIxNDAiIGRhdGEtdWlkPSJsbmszMCIgaWQ9ImxpbmtfcGF5bWVudHNfcGF5bWVudHNfc3RhdHVzIj48cGF0aCBjb2RlTGluZT0iMTQwIiBkPSJNOTU3LjQ1MDMsMTYyLjk5NCBDOTYyLjQyMDMsMTk0Ljc4NCA5NjQuMTgyNiwyMDYuMDY2MyA5NjguNjIyNiwyMzQuNDI2MyIgZmlsbD0ibm9uZSIgaWQ9InBheW1lbnRzLXBheW1lbnRzX3N0YXR1cyIgc3R5bGU9InN0cm9rZTojMTgxODE4O3N0cm9rZS13aWR0aDoxOyIvPjxsaW5lIHN0eWxlPSJzdHJva2U6IzE4MTgxODtzdHJva2Utd2lkdGg6MTsiIHgxPSI5NTUuOTA1NyIgeDI9Ijk0OC43NDIiIHkxPSIxNTMuMTE0IiB5Mj0iMTQ2LjEzNjgiLz48bGluZSBzdHlsZT0ic3Ryb2tlOiMxODE4MTg7c3Ryb2tlLXdpZHRoOjE7IiB4MT0iOTU1LjkwNTciIHgyPSI5NjAuNTk4IiB5MT0iMTUzLjExNCIgeTI9IjE0NC4yODMyIi8+PGxpbmUgc3R5bGU9InN0cm9rZTojMTgxODE4O3N0cm9rZS13aWR0aDoxOyIgeDE9Ijk1NS45MDU3IiB4Mj0iOTU0LjY3IiB5MT0iMTUzLjExNCIgeTI9IjE0NS4yMSIvPjxlbGxpcHNlIGN4PSI5NTYuODMyNSIgY3k9IjE1OS4wNDIiIGZpbGw9Im5vbmUiIHJ4PSI0IiByeT0iNCIgc3R5bGU9InN0cm9rZTojMTgxODE4O3N0cm9rZS13aWR0aDoxOyIvPjxsaW5lIHN0eWxlPSJzdHJva2U6IzE4MTgxODtzdHJva2Utd2lkdGg6MTsiIHgxPSI5NzMuMTkzMiIgeDI9Ijk2NS4yODk0IiB5MT0iMjM3Ljc1OTQiIHkyPSIyMzguOTk2OCIvPjxsaW5lIHN0eWxlPSJzdHJva2U6IzE4MTgxODtzdHJva2Utd2lkdGg6MTsiIHgxPSI5NzIuNzI5MSIgeDI9Ijk2NC44MjU0IiB5MT0iMjM0Ljc5NTUiIHkyPSIyMzYuMDMyOSIvPjxsaW5lIHN0eWxlPSJzdHJva2U6IzE4MTgxODtzdHJva2Utd2lkdGg6MTsiIHgxPSI5NjguNjIyNiIgeDI9Ijk2OS44NiIgeTE9IjIzNC40MjYzIiB5Mj0iMjQyLjMzIi8+PHRleHQgZmlsbD0iIzAwMDAwMCIgZm9udC1mYW1pbHk9InNhbnMtc2VyaWYiIGZvbnQtc2l6ZT0iMTMiIGxlbmd0aEFkanVzdD0ic3BhY2luZyIgdGV4dExlbmd0aD0iNjUiIHg9Ijk2MyIgeT0iMTg4LjI4OTEiPnBzdGF0dXNfaWQ8L3RleHQ+PC9nPjwhLS1saW5rIGludm9pY2VzIHRvIG9yZGVycy0tPjxnIGNsYXNzPSJsaW5rIiBkYXRhLWVudGl0eS0xPSJpbnZvaWNlcyIgZGF0YS1lbnRpdHktMj0ib3JkZXJzIiBkYXRhLXNvdXJjZS1saW5lPSIxNDEiIGRhdGEtdWlkPSJsbmszMSIgaWQ9ImxpbmtfaW52b2ljZXNfb3JkZXJzIj48cGF0aCBjb2RlTGluZT0iMTQxIiBkPSJNNjk0LjQyMDgsMTYxLjQ0NjIgQzcwNS44MzA4LDE4NS4yODYyIDcwNy40MTUsMTg4LjU5NDUgNzE4LjgzNSwyMTIuNDQ0NSIgZmlsbD0ibm9uZSIgaWQ9Imludm9pY2VzLW9yZGVycyIgc3R5bGU9InN0cm9rZTojMTgxODE4O3N0cm9rZS13aWR0aDoxOyIvPjxsaW5lIHN0eWxlPSJzdHJva2U6IzE4MTgxODtzdHJva2Utd2lkdGg6MTsiIHgxPSI2OTAuMTAzNyIgeDI9IjY4MS4yMzc5IiB5MT0iMTUyLjQyNjEiIHkyPSIxNDcuODAwMyIvPjxsaW5lIHN0eWxlPSJzdHJva2U6IzE4MTgxODtzdHJva2Utd2lkdGg6MTsiIHgxPSI2OTAuMTAzNyIgeDI9IjY5Mi4wNjIxIiB5MT0iMTUyLjQyNjEiIHkyPSIxNDIuNjE5NyIvPjxsaW5lIHN0eWxlPSJzdHJva2U6IzE4MTgxODtzdHJva2Utd2lkdGg6MTsiIHgxPSI2OTAuMTAzNyIgeDI9IjY4Ni42NSIgeTE9IjE1Mi40MjYxIiB5Mj0iMTQ1LjIxIi8+PGVsbGlwc2UgY3g9IjY5Mi42OTM5IiBjeT0iMTU3LjgzODIiIGZpbGw9Im5vbmUiIHJ4PSI0IiByeT0iNCIgc3R5bGU9InN0cm9rZTojMTgxODE4O3N0cm9rZS13aWR0aDoxOyIvPjxsaW5lIHN0eWxlPSJzdHJva2U6IzE4MTgxODtzdHJva2Utd2lkdGg6MTsiIHgxPSI3MjQuMTcwMyIgeDI9IjcxNi45NTQ4IiB5MT0iMjE0LjMyNDgiIHkyPSIyMTcuNzc5NyIvPjxsaW5lIHN0eWxlPSJzdHJva2U6IzE4MTgxODtzdHJva2Utd2lkdGg6MTsiIHgxPSI3MjIuODc0NyIgeDI9IjcxNS42NTkyIiB5MT0iMjExLjYxOSIgeTI9IjIxNS4wNzM5Ii8+PGxpbmUgc3R5bGU9InN0cm9rZTojMTgxODE4O3N0cm9rZS13aWR0aDoxOyIgeDE9IjcxOC44MzUiIHgyPSI3MjIuMjkiIHkxPSIyMTIuNDQ0NSIgeTI9IjIxOS42NiIvPjx0ZXh0IGZpbGw9IiMwMDAwMDAiIGZvbnQtZmFtaWx5PSJzYW5zLXNlcmlmIiBmb250LXNpemU9IjEzIiBsZW5ndGhBZGp1c3Q9InNwYWNpbmciIHRleHRMZW5ndGg9IjUyIiB4PSI3MDkiIHk9IjE4OC4yODkxIj5vcmRlcl9pZDwvdGV4dD48L2c+PCEtLWxpbmsgaW52b2ljZXMgdG8gdXNlcnMtLT48ZyBjbGFzcz0ibGluayIgZGF0YS1lbnRpdHktMT0iaW52b2ljZXMiIGRhdGEtZW50aXR5LTI9InVzZXJzIiBkYXRhLXNvdXJjZS1saW5lPSIxNDIiIGRhdGEtdWlkPSJsbmszMiIgaWQ9ImxpbmtfaW52b2ljZXNfdXNlcnMiPjxwYXRoIGNvZGVMaW5lPSIxNDIiIGQ9Ik02MzQuMDg0NSwxNjIuNjYyNCBDNjEyLjI1NDUsMjY2LjE0MjQgNTg0LjM4LDQ1MC44NiA2MjYsNjE2IEM2MzIuNDUsNjQxLjYxIDY0MC4zNyw2NjAuNTgxOSA2NTIuOTYsNjgzLjU5MTkiIGZpbGw9Im5vbmUiIGlkPSJpbnZvaWNlcy11c2VycyIgc3R5bGU9InN0cm9rZTojMTgxODE4O3N0cm9rZS13aWR0aDoxOyIvPjxsaW5lIHN0eWxlPSJzdHJva2U6IzE4MTgxODtzdHJva2Utd2lkdGg6MTsiIHgxPSI2MzYuMTQ4NyIgeDI9IjYzMS45MjkyIiB5MT0iMTUyLjg3NzciIHkyPSIxNDMuODExNSIvPjxsaW5lIHN0eWxlPSJzdHJva2U6IzE4MTgxODtzdHJva2Utd2lkdGg6MTsiIHgxPSI2MzYuMTQ4NyIgeDI9IjY0My42NzA4IiB5MT0iMTUyLjg3NzciIHkyPSIxNDYuMjg4NSIvPjxsaW5lIHN0eWxlPSJzdHJva2U6IzE4MTgxODtzdHJva2Utd2lkdGg6MTsiIHgxPSI2MzYuMTQ4NyIgeDI9IjYzNy44IiB5MT0iMTUyLjg3NzciIHkyPSIxNDUuMDUiLz48ZWxsaXBzZSBjeD0iNjM0LjkxMDIiIGN5PSIxNTguNzQ4NSIgZmlsbD0ibm9uZSIgcng9IjQiIHJ5PSI0IiBzdHlsZT0ic3Ryb2tlOiMxODE4MTg7c3Ryb2tlLXdpZHRoOjE7Ii8+PGxpbmUgc3R5bGU9InN0cm9rZTojMTgxODE4O3N0cm9rZS13aWR0aDoxOyIgeDE9IjY1OC4zODkxIiB4Mj0iNjUxLjM3MDkiIHkxPSI2ODUuMTgwOSIgeTI9IjY4OS4wMjA5Ii8+PGxpbmUgc3R5bGU9InN0cm9rZTojMTgxODE4O3N0cm9rZS13aWR0aDoxOyIgeDE9IjY1Ni45NDkxIiB4Mj0iNjQ5LjkzMDkiIHkxPSI2ODIuNTQ5MSIgeTI9IjY4Ni4zODkxIi8+PGxpbmUgc3R5bGU9InN0cm9rZTojMTgxODE4O3N0cm9rZS13aWR0aDoxOyIgeDE9IjY1Mi45NiIgeDI9IjY1Ni44IiB5MT0iNjgzLjU5MTkiIHkyPSI2OTAuNjEiLz48dGV4dCBmaWxsPSIjMDAwMDAwIiBmb250LWZhbWlseT0ic2Fucy1zZXJpZiIgZm9udC1zaXplPSIxMyIgbGVuZ3RoQWRqdXN0PSJzcGFjaW5nIiB0ZXh0TGVuZ3RoPSI0NS41IiB4PSI2MDgiIHk9IjQwMS4yODkxIj51c2VyX2lkPC90ZXh0PjwvZz48IS0tbGluayBzZWxsZXJfcmVxdWVzdHMgdG8gdXNlcnMtLT48ZyBjbGFzcz0ibGluayIgZGF0YS1lbnRpdHktMT0ic2VsbGVyX3JlcXVlc3RzIiBkYXRhLWVudGl0eS0yPSJ1c2VycyIgZGF0YS1zb3VyY2UtbGluZT0iMTQzIiBkYXRhLXVpZD0ibG5rMzMiIGlkPSJsaW5rX3NlbGxlcl9yZXF1ZXN0c191c2VycyI+PHBhdGggY29kZUxpbmU9IjE0MyIgZD0iTTEyNzIuMTEyLDYwNS43NDgxIEMxMjQ1LjAyMiw2MzAuMzM4MSAxMjI1LjI3LDY0NC4wOCAxMTkxLDY2MSBDMTA2My4xOSw3MjQuMTEgOTA1Ljk0OSw3NDguOTExNCA4MDUuMzQ5LDc1OS4xMzE0IiBmaWxsPSJub25lIiBpZD0ic2VsbGVyX3JlcXVlc3RzLXVzZXJzIiBzdHlsZT0ic3Ryb2tlOiMxODE4MTg7c3Ryb2tlLXdpZHRoOjE7Ii8+PGxpbmUgc3R5bGU9InN0cm9rZTojMTgxODE4O3N0cm9rZS13aWR0aDoxOyIgeDE9IjEyNzkuNTE2NCIgeDI9IjEyODEuNDA3MyIgeTE9IjU5OS4wMjY5IiB5Mj0iNTg5LjIwNzMiLz48bGluZSBzdHlsZT0ic3Ryb2tlOiMxODE4MTg7c3Ryb2tlLXdpZHRoOjE7IiB4MT0iMTI3OS41MTY0IiB4Mj0iMTI4OS40NzI3IiB5MT0iNTk5LjAyNjkiIHkyPSI1OTguMDkyNyIvPjxsaW5lIHN0eWxlPSJzdHJva2U6IzE4MTgxODtzdHJva2Utd2lkdGg6MTsiIHgxPSIxMjc5LjUxNjQiIHgyPSIxMjg1LjQ0IiB5MT0iNTk5LjAyNjkiIHkyPSI1OTMuNjUiLz48ZWxsaXBzZSBjeD0iMTI3NS4wNzM3IiBjeT0iNjAzLjA1OTYiIGZpbGw9Im5vbmUiIHJ4PSI0IiByeT0iNCIgc3R5bGU9InN0cm9rZTojMTgxODE4O3N0cm9rZS13aWR0aDoxOyIvPjxsaW5lIHN0eWxlPSJzdHJva2U6IzE4MTgxODtzdHJva2Utd2lkdGg6MTsiIHgxPSI4MDEuNzczOCIgeDI9IjgwMC45NjUyIiB5MT0iNzYzLjUxNTIiIHkyPSI3NTUuNTU2MiIvPjxsaW5lIHN0eWxlPSJzdHJva2U6IzE4MTgxODtzdHJva2Utd2lkdGg6MTsiIHgxPSI4MDQuNzU4NCIgeDI9IjgwMy45NDk5IiB5MT0iNzYzLjIxMiIgeTI9Ijc1NS4yNTMiLz48bGluZSBzdHlsZT0ic3Ryb2tlOiMxODE4MTg7c3Ryb2tlLXdpZHRoOjE7IiB4MT0iODA1LjM0OSIgeDI9Ijc5Ny4zOSIgeTE9Ijc1OS4xMzE0IiB5Mj0iNzU5Ljk0Ii8+PHRleHQgZmlsbD0iIzAwMDAwMCIgZm9udC1mYW1pbHk9InNhbnMtc2VyaWYiIGZvbnQtc2l6ZT0iMTMiIGxlbmd0aEFkanVzdD0ic3BhY2luZyIgdGV4dExlbmd0aD0iNDUuNSIgeD0iMTIxNyIgeT0iNjU5LjI4OTEiPnVzZXJfaWQ8L3RleHQ+PC9nPjwhLS1saW5rIHNlbGxlcl9yZXF1ZXN0cyB0byBzZWxsZXJfcmVxdWVzdF9zdGF0dXMtLT48ZyBjbGFzcz0ibGluayIgZGF0YS1lbnRpdHktMT0ic2VsbGVyX3JlcXVlc3RzIiBkYXRhLWVudGl0eS0yPSJzZWxsZXJfcmVxdWVzdF9zdGF0dXMiIGRhdGEtc291cmNlLWxpbmU9IjE0NCIgZGF0YS11aWQ9ImxuazM0IiBpZD0ibGlua19zZWxsZXJfcmVxdWVzdHNfc2VsbGVyX3JlcXVlc3Rfc3RhdHVzIj48cGF0aCBjb2RlTGluZT0iMTQ0IiBkPSJNMTM1MSw2MTEuNTkgQzEzNTEsNjUyLjI0IDEzNTEsNjc2Ljc2IDEzNTEsNzEyLjY4IiBmaWxsPSJub25lIiBpZD0ic2VsbGVyX3JlcXVlc3RzLXNlbGxlcl9yZXF1ZXN0X3N0YXR1cyIgc3R5bGU9InN0cm9rZTojMTgxODE4O3N0cm9rZS13aWR0aDoxOyIvPjxsaW5lIHN0eWxlPSJzdHJva2U6IzE4MTgxODtzdHJva2Utd2lkdGg6MTsiIHgxPSIxMzUxIiB4Mj0iMTM0NSIgeTE9IjYwMS41OSIgeTI9IjU5My41OSIvPjxsaW5lIHN0eWxlPSJzdHJva2U6IzE4MTgxODtzdHJva2Utd2lkdGg6MTsiIHgxPSIxMzUxIiB4Mj0iMTM1NyIgeTE9IjYwMS41OSIgeTI9IjU5My41OSIvPjxsaW5lIHN0eWxlPSJzdHJva2U6IzE4MTgxODtzdHJva2Utd2lkdGg6MTsiIHgxPSIxMzUxIiB4Mj0iMTM1MSIgeTE9IjYwMS41OSIgeTI9IjU5My41OSIvPjxlbGxpcHNlIGN4PSIxMzUxIiBjeT0iNjA3LjU5IiBmaWxsPSJub25lIiByeD0iNCIgcnk9IjQiIHN0eWxlPSJzdHJva2U6IzE4MTgxODtzdHJva2Utd2lkdGg6MTsiLz48bGluZSBzdHlsZT0ic3Ryb2tlOiMxODE4MTg7c3Ryb2tlLXdpZHRoOjE7IiB4MT0iMTM1NSIgeDI9IjEzNDciIHkxPSI3MTYuNjgiIHkyPSI3MTYuNjgiLz48bGluZSBzdHlsZT0ic3Ryb2tlOiMxODE4MTg7c3Ryb2tlLXdpZHRoOjE7IiB4MT0iMTM1NSIgeDI9IjEzNDciIHkxPSI3MTMuNjgiIHkyPSI3MTMuNjgiLz48bGluZSBzdHlsZT0ic3Ryb2tlOiMxODE4MTg7c3Ryb2tlLXdpZHRoOjE7IiB4MT0iMTM1MSIgeDI9IjEzNTEiIHkxPSI3MTIuNjgiIHkyPSI3MjAuNjgiLz48dGV4dCBmaWxsPSIjMDAwMDAwIiBmb250LWZhbWlseT0ic2Fucy1zZXJpZiIgZm9udC1zaXplPSIxMyIgbGVuZ3RoQWRqdXN0PSJzcGFjaW5nIiB0ZXh0TGVuZ3RoPSI3OCIgeD0iMTM1MiIgeT0iNjU5LjI4OTEiPnNyX3N0YXR1c19pZDwvdGV4dD48L2c+PCEtLVNSQz1bakxSVlJ6aVc0N3h0TnM3dlBQa3NJYnNhbGJIVDlRX0FqNlhETWdOUGozVUJzaEgxak9xQlU1RXF6ZF9sT1IzMTFBOVBNX3JhazhfeHhXVHQxd3U1NFJrT3FIQnAtNHlLbV9UVUJaOUluQVZucE5vekkyX1ppeEZoUi1WZGRSMTY1R1IxWnRIenlKTFRsX3J1VkZva3N5emZXTnNvdm9aMllnQmJjMHFLU1o2TDBiVThiM3YxV3BaX0pMY0hSSDdWMGMwcF94YkhXWXNqUkxLcFZTMHVrNVhqV0ZmQkp2cXBaMEdrQ1lJYWNpTG9WaEQ5YnpVTTR3V2U2RVJTbjRmbFg3bW5WWmZDTjMyQ1hVdERJSHo5b1VGbmFXaW1wVWktMUw2UG9HbnVWQ3JmTW1sY3JLWHVMazB4cjlSSVppek5MdlZwVDZOdmNXRlZGTU40RUFqdFRiQ3BMczJVQ3o4OEdraS1GT082dHJCd0M1MXFndjMtQ1J5SktQVnk5NHBVSE9zSE5FOU50dlYwU203NlZmWnJXUVJ2V3o5X3c1OXF3TXNBYUFXeEhWVUp4cGdVYUdoVGNuMXRndjNfTGQwU3Z6TW5iZk54eVNxSDRuYUhrQkJJZzdTY3R6Z20wT3lqS2RHY1JiMFFYcWU5MlhPUUdZUWxUSmtPZlpReGhWX1ZXUEpvNFROYTI4cGd0UDQ5MmRMZU53Y1BrTEFUYXpGeFpKUklwZnhQMlhibFVWT2wtVkROWUI2akdSaUFWanFLRGctTGxmdmw4NUJod0w2ZWlEWkltWUJnTW1NZ1BCRnFQZDNhYlFFbEdVSDAyYWR6WXE4V0pPTWh6TklwV3RVSVNEeHdjejNVWkhvUU41RlMtVGk1bnNLOUYwbV9qZldCOXhVU1BRLUx0SjZsVU9qZUV3Uk13TXRCSUlxQkRKV01RRHdRdy1GVTFDVkhsb3hSdzR0eW9WVjFfWGdOQThTWFg3YUc1QWF0cVpDekVkZndxYy1vcXBaSHB2S2FDZ3lGM0w1dVdFV3U5OTZVZmJma1pOMDBNVUZKMUd3QXBEWmc4VnMwcWFYejNnMXpDcWFZUXlHNDNUbDctM0pmNVh0S0NmUVJVMDM2VDZPTkRmdXEwNUxfNlpPc0lmeTRLNS04TmZaRnpnNF83TDNiT2ptVTJjM0pRUDlldzFxN0xCZ09fUTJ2ZkpLTHc2eTlDZXZNYklHbF0tLT48L2c+PC9zdmc+;" vertex="1" parent="WIyWlLk6GJQsqaUBKTNV-1">
            <mxGeometry x="-420" y="-320" width="1462" height="1018" as="geometry" />
          </mxCell>
        </UserObject>
      </root>
    </mxGraphModel>
  </diagram>
</mxfile>
